<?xml version="1.0" encoding="utf-8"?>
<!-- Generator: Adobe Illustrator 19.0.0, SVG Export Plug-In . SVG Version: 6.00 Build 0)  -->
<svg version="1.1" xmlns="http://www.w3.org/2000/svg" xmlns:xlink="http://www.w3.org/1999/xlink" x="0px" y="0px"
	 viewBox="0 0 612 792" style="enable-background:new 0 0 612 792;" xml:space="preserve">
<style type="text/css">
	.st0{display:none;}
	.st1{display:inline;stroke:$whiteFFF;stroke-miterlimit:10;}
	.st2{fill:$whiteFFF;}
</style>
<g id="Layer_1" class="st0">
	<rect id="XMLID_1_" y="-4.7" class="st1" width="621.4" height="805.8"/>
</g>
<g id="Layer_2">
	<g id="XMLID_3_">
		<g id="XMLID_391_">
			<g id="XMLID_395_">
				<g id="XMLID_396_">
					<g id="XMLID_397_">
						<path id="XMLID_484_" class="st2" d="M413.7,617.6c-0.4,3.3,3,2.3,3.6,2.8C416.7,614.8,412.8,617.7,413.7,617.6z"/>
						<polygon id="XMLID_483_" class="st2" points="408,562 409.4,563 406.3,554.8 						"/>
						<path id="XMLID_482_" class="st2" d="M409.9,510.3c-5.9,4.7,0.3,18.8-2.1,27.9l-1.4,1.5l4.4,4.3
							C410.6,532.8,408.1,518.1,409.9,510.3z"/>
						<path id="XMLID_481_" class="st2" d="M423.2,483.1c-2.3,1.6-1.7-6-0.9,6.4c0.3-0.6,0.4-0.8,0.6-1.1
							C422.9,487.3,423,485.7,423.2,483.1z"/>
						<path id="XMLID_480_" class="st2" d="M422.9,488.4C422.9,493.9,424.9,484.9,422.9,488.4L422.9,488.4z"/>
						<path id="XMLID_479_" class="st2" d="M422.5,463.2l1.7,7.2c1.4-1.5,1.9-7.8,2.8-5.4C426.2,457.6,424.8,459.1,422.5,463.2z"/>
						<path id="XMLID_478_" class="st2" d="M418.6,456.2l0.7,3.7C419.9,459.4,420.1,458.4,418.6,456.2z"/>
						<path id="XMLID_477_" class="st2" d="M420.8,467.9l-1.5-7.9c-1,1-2.8,1.1,0.5,3.6C418.2,462.9,419.7,464.5,420.8,467.9z"/>
						<path id="XMLID_476_" class="st2" d="M419.8,472.4c-1.4,4-2.3,9.2-4.1,1.9C416,488,420.1,486.1,419.8,472.4z"/>
						<path id="XMLID_475_" class="st2" d="M404.1,507.4l-1.9,5.3l1.7,4.7C403.1,515.1,405.9,507.2,404.1,507.4z"/>
						<path id="XMLID_474_" class="st2" d="M427.1,418.6c-1.2-0.5-3.3,2.3-4.9,2.8l1.2,5.3C424.3,424,425.3,418.9,427.1,418.6z"/>
						<path id="XMLID_473_" class="st2" d="M422.2,421.4l-1.8-8C419.9,420.4,420.8,421.8,422.2,421.4z"/>
						<polygon id="XMLID_472_" class="st2" points="412.3,454.7 416.2,467.9 412.4,452.2 						"/>
						<polygon id="XMLID_471_" class="st2" points="428.3,388.3 430.9,392.9 427,384.7 						"/>
						<path id="XMLID_470_" class="st2" d="M428.5,368.2c2.2,3.4,4.1-4.4,5.4-0.9c-0.2-5.5-2.1-10.2-3.7-14.5
							C431,357.4,430.6,362.1,428.5,368.2z"/>
						<path id="XMLID_469_" class="st2" d="M427.8,345.7c0.5,2.2,1.4,4.6,2.4,7.1C429.7,350.5,429.1,348.1,427.8,345.7z"/>
						<path id="XMLID_468_" class="st2" d="M421.4,399.9c0.8-0.6,2.7-1.7,3.7-6.1l-3.5,3C421.6,397.7,421.5,398.8,421.4,399.9z"/>
						<path id="XMLID_467_" class="st2" d="M421.5,396.9l0.1-0.1c0.2-3.4,0.4-5.7,0.4-6.7C422,390.9,421.8,392.9,421.5,396.9z"/>
						<path id="XMLID_466_" class="st2" d="M421.4,400.7c0-0.3,0-0.5,0-0.8C421.1,400.2,421,400.3,421.4,400.7z"/>
						<path id="XMLID_465_" class="st2" d="M416.1,434.1c-1.7-4.7-3.5-14.5-6.7-5.2C411.7,432.3,413.5,426.9,416.1,434.1z"/>
						<path id="XMLID_464_" class="st2" d="M417,404.4l-1.1,8.4c0.9-0.1,2.3-1.6,3.1,0.7L417,404.4z"/>
						<polygon id="XMLID_463_" class="st2" points="416.1,400.2 417,404.4 417.4,401.3 						"/>
						<path id="XMLID_462_" class="st2" d="M424.1,360.1c-1.4-3.7-1.3-7.7-1.4-12.2c-0.8,4.8-1.4,9.8-1.5,14.5
							C422.2,363.1,424.1,365.2,424.1,360.1z"/>
						<path id="XMLID_461_" class="st2" d="M422.5,377.9c-0.1-0.3-0.1-0.6-0.2-0.8C422.1,377.6,422,378,422.5,377.9z"/>
						<path id="XMLID_460_" class="st2" d="M424.3,303.6c-0.2,0.2-0.4,0.4-0.6,0.7c0.2,0.1,0.4,0.1,0.6,0.2L424.3,303.6z"/>
						<path id="XMLID_459_" class="st2" d="M420.5,363.2c-0.8,3.6,0,5.8,1,7.9c-0.2-2.7-0.4-5.6-0.3-8.7
							C420.7,362.1,420.4,362,420.5,363.2z"/>
						<path id="XMLID_458_" class="st2" d="M426.7,333.3c-0.8,1.9-1.5,4-2.1,6.2C425.7,337.7,427.5,334,426.7,333.3z"/>
						<path id="XMLID_457_" class="st2" d="M423.4,375.9c0,0.2,0.1,0.3,0.1,0.5C424.3,375.3,423.9,375.5,423.4,375.9z"/>
						<path id="XMLID_456_" class="st2" d="M423.4,375.9c-0.4-1.9-1.2-3.4-1.9-4.9c0.2,2.2,0.5,4.3,0.9,6.1
							C422.6,376.7,423,376.2,423.4,375.9z"/>
						<path id="XMLID_455_" class="st2" d="M402.8,289.4c3.1,0.7,5.7,10.4,2.1,18.5c2.1,8.2,12.7,3.3,18.8-3.6
							c-1.4-0.3-2.6-0.3-4.2-8.7c-1.8,2.9-4.7,18.3-7.3,11.2c-1.2-11.1,1.4-9,3.3-14.3c-4.1,4.4-5.2-14.2-11.1-12l1.7,9.7
							C405.1,290.3,403.7,286.8,402.8,289.4z"/>
						<path id="XMLID_454_" class="st2" d="M422.8,320.2l0.3,3.4c0.7-3.9,2.1-6.6,4.7-11.7c-1.3-5.8-2.5-7-3.5-7.4l-1,16.9
							L422.8,320.2z"/>
						<path id="XMLID_453_" class="st2" d="M422.5,339c-3.4-2.8-4.5-11.1-8.4-6.2c-0.1,10.1,2.6,7.1,3.9,13.2
							c-0.3-16.3,1.8,4.7,4.1-6.9c0.5,3.2,0.6,6.1,0.6,8.8c0.5-2.9,1.1-5.7,1.9-8.3c-0.1,0.1-0.1,0.2-0.2,0.4l0,0.1c0,0,0,0-0.1,0
							c-0.5,0.7-0.7,0.9-0.4,0.1c0-0.1,0-0.3-0.1-0.3C423.3,339.6,422.9,339.3,422.5,339c0.9-4.7,0.9-0.7,1.3,0.8
							c0.2,0.1,0.3,0.2,0.5,0.2c0,0,0,0,0-0.1l-1.3-16.3C422.4,327,422.4,331.3,422.5,339z"/>
						<path id="XMLID_452_" class="st2" d="M402.3,419.9c0.3-0.5,0.6-0.5,0.8-0.5C402.8,418.4,402.5,417.9,402.3,419.9z"/>
						<path id="XMLID_451_" class="st2" d="M404.7,413.3c0.4,1.2,1.8,2.2,1.3,6.1c-1.2,3.3-1.7-0.1-2.8,0.1c0.8,2.3,2.2,8.2,4.1,1
							l-0.4-1.2c1.4-6.5,6-14.8,6.4-13.6C410.1,407.5,407.9,409.1,404.7,413.3z"/>
						<path id="XMLID_450_" class="st2" d="M412.7,375.6l-1.2-13.6l-3.2,6.8l1.8-0.3C409.1,376.2,411.4,374.6,412.7,375.6z"/>
						<polygon id="XMLID_449_" class="st2" points="426.1,302.1 429.6,304 424.8,296.1 						"/>
						<polygon id="XMLID_448_" class="st2" points="426.2,284.5 429.4,285.3 427.6,280.6 						"/>
						<path id="XMLID_447_" class="st2" d="M270.3,230.5c0,0-0.1,0.5-0.2,1c-0.1,0.5-0.2,1.1-0.2,1.1
							C270,232.1,270.2,231.4,270.3,230.5z"/>
						<path id="XMLID_446_" class="st2" d="M272.8,241.9l0.5-4.3C273,239.5,272.8,241.2,272.8,241.9z"/>
						<path id="XMLID_445_" class="st2" d="M364.1,286.9c-3.7,5.3-9.1,11.1-5.5,10.9l3.7-1.3C362.2,292.4,363,289.4,364.1,286.9z"/>
						<path id="XMLID_444_" class="st2" d="M334.8,416.6c0,1.5,0,3,0,4.5c0.8-1.8,1.5-3.5,2.1-5.3
							C336.3,416.2,335.6,416.5,334.8,416.6z"/>
						<path id="XMLID_443_" class="st2" d="M327.9,448.6l-1.7-16.2C326.4,436.6,326.9,441.8,327.9,448.6z"/>
						<path id="XMLID_442_" class="st2" d="M262.7,265c0,0,0.7,1.5,1.3,2.9c0.7,1.4,1.4,2.6,1.4,2.6c0.1-0.5-0.3-1.3-0.8-2.3
							C264.1,267.3,263.4,266.3,262.7,265z"/>
						<path id="XMLID_441_" class="st2" d="M431.3,104.4c1.5-5,2.2-8.9,2.5-12.4C431.6,97.9,428.5,102.7,431.3,104.4z"/>
						<path id="XMLID_440_" class="st2" d="M277.6,106c-1-1.5-1.5-0.5-1.6,2.4C277,109.9,277.6,109.8,277.6,106z"/>
						<path id="XMLID_439_" class="st2" d="M434.3,77.5c-0.4,0.9-0.6,1.7-0.9,2.6c0.5,3.7,0.8,7.4,0.4,11.8
							C435.5,87.6,436.6,82.5,434.3,77.5z"/>
						<path id="XMLID_438_" class="st2" d="M142.3,248.3c0.1-0.4,0.1-0.9,0.2-1.3C142,247,142.1,247.5,142.3,248.3z"/>
						<path id="XMLID_437_" class="st2" d="M154.1,78.9c0.4,1.6,0.8,4.2,1.2,6.7C155.4,84.4,155.1,82.3,154.1,78.9z"/>
						<path id="XMLID_436_" class="st2" d="M430.2,213.8C430.3,217.6,430.6,214.4,430.2,213.8L430.2,213.8z"/>
						<path id="XMLID_435_" class="st2" d="M415.9,231.5c-0.4-0.8-0.8-1.4-1.6-1.5C415.1,230.3,415.6,230.8,415.9,231.5z"/>
						<path id="XMLID_434_" class="st2" d="M409.6,103.5c0,0.1,0,0.2-0.1,0.3C410.4,102.8,410.2,103,409.6,103.5z"/>
						<path id="XMLID_433_" class="st2" d="M428.5,219.4c0.5-1.4,0.9-3,1.2-4.7C429.4,215.4,429,216.8,428.5,219.4z"/>
						<path id="XMLID_432_" class="st2" d="M430.1,218.7c-0.2,1.3-0.3,2.3-0.5,3.2C430.2,222.4,430.6,222,430.1,218.7z"/>
						<path id="XMLID_431_" class="st2" d="M430.2,208.6c0,2.1-0.3,4.1-0.6,6c0.3-0.7,0.5-1,0.6-0.8
							C430.2,212.7,430.2,211.2,430.2,208.6z"/>
						<path id="XMLID_430_" class="st2" d="M205.2,559.8c-0.1-0.3-0.1-0.4-0.2-0.9c-0.3,6.9-0.4,9.5-0.4,9.1
							C204.7,567.7,205,564.4,205.2,559.8z"/>
						<path id="XMLID_429_" class="st2" d="M383.3,413.4c0-0.3,0-0.6,0-0.9c-0.1,0.2-0.1,0.4-0.2,0.6L383.3,413.4z"/>
						<path id="XMLID_428_" class="st2" d="M382.4,439.2c-0.9-9.1-1.2-14.3-1-17.9c0.2-3.6,0.8-5.7,1.6-8.2c0,0-2.2-2.6-4.3-5.6
							c-2.1-3-4.2-6.3-4.2-6.3s0.5,2.2,1.3,5.5c0.8,3.3,1.8,7.9,2.8,12.6c1,4.7,1.9,9.7,2.6,13.5C382,436.6,382.4,439.2,382.4,439.2
							z"/>
						<path id="XMLID_421_" class="st2" d="M265.3,230.6c0,0,0.4,2.4,0.8,5.1c0.4,2.7,0.7,5.6,0.7,5.6c0.3,5,0.5,9.7,0.7,13.6
							c0.2,3,0.3,4.9,0.4,6.5c0.1,1.7,0.3,3.1,0.5,5.2c0.1,0.8,0.4,3.7,0.9,9.4c-0.7-8.1-1.2-13.5-1.5-17.5c-0.3-3.9-0.3-6.3-0.3-8
							c0-1.7,0.1-2.6,0.2-3.7c0.1-1.2,0.1-2.6,0.1-5.5c0-1.4,0-3.6,0-7.3c-0.1-3.7-0.2-8.9-0.4-16.3c0,0,0.2,3.3,0.5,6.6
							c0.2,3.2,0.4,6.4,0.4,6.4c-0.1-1-0.1,1.9-0.2,0.9c0.4,7.1,0.5,8.2,0.6,6.5c0.1-1.7,0.1-6.3,0.1-11.3c0-4.9,0.1-10.2,0.3-13.2
							c0.2-3,0.6-3.8,1-0.3c0.3,3,0.5,6.4,0.6,9.4c0.1,3,0,5.7-0.2,7.5c0,0,0.3-1.5,0.7-2.7c0.4-1.2,0.9-2.2,0.9-2.2
							c0.4,2.3-0.1,8.3-0.4,6.2c0,0,0.5,1.1,1,2.3c0.5,1.3,1.1,2.5,1.1,2.5l-0.1,0.9c0.4-2,1-4.1,1.6-5.8c0.6-1.7,1.3-2.9,1.7-3.5
							c0,3.3-0.2,3.7-0.4,3.8c-0.2,0.1-0.5,0-0.7,2c0,0,0.6-0.4,1.2-0.6c0.6-0.2,1.3-0.2,1.3-0.2c-0.4,4.4-1.2,6.8-1.9,7.9
							c-0.7,1.1-1.4,1-1.7-1.1c-0.8,8.1-1.2,11.5-1.2,12.9c0,1.3,0.3,0.5,0.7-0.3c0.4-0.9,1-1.8,1.4-1.2c0.4,0.6,0.6,2.9,0,7.3
							c0,0-0.4-0.2-0.8-0.2c-0.4-0.1-0.7,0-0.7,0c-1.4,7-1.9,9.2-2.2,10.9c-0.2,0.8-0.3,1.5-0.5,2.4c-0.2,0.8-0.6,1.9-1.3,3.1
							c0.4-0.6,1-1.8,1.6-3.4c0.7-1.6,1.4-3.8,2.1-6.2c1.4-4.7,2.7-10.5,4.1-10.3c-0.1,1.3-0.1,2.5,0.1,3.2c0.3,0.8,0.8,1.1,1.9,1.2
							c-2.8,4.6-1.7,5.4-0.8,8c0,0-1.1,0.9-2.2,1.9c-1.1,1-2.2,1.9-2.2,1.9c0.8,0.2,1.8,0.1,2.9-0.1c1.1-0.2,2.3-0.5,3.6,0
							c0.1,0.5,0,0.9,0,1.3c0,0.2-0.1,0.4-0.1,0.6c-0.1,0.2-0.2,0.2-0.2,0.7c-0.1,1.5-0.5,2.8-1,3.8c-1,2.1-2.5,3.5-3.9,4.9
							c2.6,13.9,3.8-11,8.8,5c0.9,11.8,4.9,19.3,11.2,32.2c0.2,8.4-3.4-0.6-4.1,2.6l5.7,6.1c0.3,1.7-1,1.5-1.7,1.4
							c3,5.6,5.1-0.7,8.7,8.3c1.5,0.3,2.1,1.8,2.2,4c0,0.3,0,0.6,0,0.9c0,0.4,0,0.8,0.1,1.2c0,0.9,0,1.8,0.1,2.7
							c0,2,0.1,4.1,0.1,6.4c0.1,4.6,0.5,10,1.4,15c0.9,5,2.4,9.6,4.6,12.1c-0.1,2.8-0.8,3.2-1.6,3.3c-0.9,0-1.9-0.3-2.5,1.4
							c2.4,5.2,3.9,8.6,5.2,11.2c1.2,2.6,2.1,4.4,3,5.9c0.9,1.5,1.7,2.8,2.8,4.2c1.1,1.4,2.5,2.9,4.3,4.4c0,0,0.5,5.4,0.9,10.8
							c0.5,5.7,1.1,11.4,1.1,11.4c-0.5-10.1,0.8-13.4,2.6-14.8c1.8-1.3,4.1-0.7,5.9-1c0-7.9,0.1-14.1,0.1-17.5c0,0,1.1,1.6,2.1,2.8
							c1,1.3,2,2.2,2,2.2c0.1,3.8-0.7,7.9-2,11.7c0.4-0.2,0.7-0.6,1-1c0.3,5.1,0.1,9.5-0.4,12.9c-0.5,3.5-1.4,6.1-2.4,8
							c-0.2-5-0.3-9.9-0.3-14.6c-1,2.3-2.2,4.6-3.2,7.2c-1,2.7-1.9,5.8-2.4,10c0.6-0.2,1.4,1,2.1,2.9c-0.6,1-1.1,2.1-1.2,4
							c0,2.1,0.9,1.3,2.2,0.9c0,0-0.2,5.1-0.4,10.2c-0.2,5.3-0.3,10.5-0.3,10.5l1-5.3c0,0,1.5,9.7,2.9,19.5
							c1.6,10.3,3.2,20.6,3.2,20.6c3.1,0.6,5.6-3.9,7.9-7.8c1.1-1.9,2.2-3.6,3.3-4.3c1.1-0.7,2.2-0.3,3.4,2.3
							c-0.2,7.7-0.1,15.7,0.4,25c0.4,9.3,1.1,20.1,1.6,32.3c-1.5-17.2-2.7-19.6-4.2-21.4c-0.8-0.8-1.6-1.5-2.5-3.3
							c-0.9-1.8-1.9-4.7-2.9-9.9c2.1,10.7,1.7,19,1.1,20.1c0,0,0.5,0.7,1.2,1.7c0.7,1,1.6,2.2,2.5,3.2c0.9,1,1.7,1.9,2.3,2.5
							c0.6,0.6,1,0.9,1,0.9c0.2,9.4,0.7,14.7,1.5,19.6c0.7,5,1.7,9.6,2.9,17.9c-0.8-11.3-0.9-17.4-0.7-20.3c0.2-2.9,0.8-2.8,1.5-1.2
							c0.4-5.6,0.9-10.7,1.4-15.9c0.5-5.2,0.9-10.5,1.1-16.4c0.5,6.1,1,13.1,1,20.1c0,7-0.4,14.1-1.5,19.9c1,3.7,1.6,0.9,1.8-4.8
							c0.2-5.6,0.2-14.2,0.1-22.5c-0.1-8.4-0.3-16.6-0.1-22.2c0.1-5.5,0.5-8.3,1.5-6.4c-0.4,3.6-0.8,3.5-0.5,10.9
							c0.1-9.3,0.9-16.2,1.8-19.4c0.5-1.6,0.9-2.2,1.3-1.7c0.4,0.6,0.7,2.4,0.8,5.9l-0.4,3.7c0.9-4.9,2-11.8,3-19.9
							c1-8.1,2-17.2,2.8-26.2c0.7-9,1.2-17.8,1.2-25.5c0-7.6-0.5-14-1.6-18.7c0.3,0.9,1.6,6.4,3,12.3c1.3,5.9,2.6,12.4,3,14.9
							c0,0-0.2-1.6-0.4-4.3c-0.3-2.7-0.7-6.5-1.1-10.9c-1-8.8-2.4-19.8-3.9-29.6c-1.6-9.8-3.3-18.5-4.6-24.4c-0.7-3-1.3-5.3-1.7-6.9
							c-0.4-1.6-0.7-2.5-0.7-2.5c1.1,2.7,2.7,5.6,4.5,8.5c1.8,2.9,3.8,5.9,5.7,9c3.8,6.2,7.2,13.3,7.1,26.5c0.7-2.3,1.5-4.9,2.2-9
							c0.6-4.1,1.1-9.6,1.1-17.1c-0.6,1.6-2.7,1.5-4.6,0c-1.9-1.5-3.6-4.1-3.5-6.6c1.8-1,3-2.1,3.8-3.1c0.9-1,1.4-1.9,1.9-2.9
							c0.5-1,1-2.2,1.9-4c0.8-1.8,2-4.1,3.9-7.9c-1,2.7-3.3,0.5-5.3-2.9c-1-1.7-1.9-3.7-2.5-5.7c-0.6-2-0.8-3.9-0.5-5.8
							c0.6,0.9,2.7,1.7,4.8,2.6c2.1,1,4.1,2.1,4.3,4.1c0,0-0.3-1.7-0.8-4.2c-0.5-2.5-1.2-5.6-2-8.5c-0.2-0.7-0.4-1.4-0.6-2.1
							c-0.1-0.3-0.2-0.7-0.3-1c-0.1-0.3-0.2-0.5-0.3-0.8c-0.4-1-0.8-1.9-1.1-2.7c-0.6-1.6-1.1-2.6-1.1-2.6c1.1,4.1,7.5,1.7,10.5-1.5
							c-2,1.4,2-13.6,1.7-17.9l-3,6.4c3.8-17.6-10.2-19.2-7.3-36.8c1.6,2.4,10.6,6.8,13-2c-4-4.7-19.5-21.2-20.9-37.2l3-2.6
							l-1.3-12.4c5.9,8.4,17.5,31.2,21.6,43.4c3-6.4,3.3-1.4,4.4-11.4c2.9-3.2,3,5.9,2.7,8.9l4.7-23c-5.5,0.3-2.9-18.4-7.5-18.2
							l2.1,25.9c-5.5,0.3-13.2-16.6-10-32.9c2.7-3.9,9.1,4.4,10.9,4.3c-1.5-2.4-1.4-16.1,0.1-17.4l1.9,7.4c3.2-8.9-5-15.9,1.5-26.2
							c0.9-3.7,8.4-10.4,5.3-11.5c-6.9,5.4-25.9,4-29.9-0.7c0.6-1.3,8.5-19.1,12.1-23c5.6-5.6,10.1,10.9,14.9,6.2
							c-1.4-0.4-2.8-4.1-3.1-5.6c1.8-3.8,4.3,2.3,4.8-6.5c-5.2-2.2,2.8-17.5-4-4.7c-0.4-8.7,2.3-8.8,3.4-18.8
							c-3.9,2.7-10.7-10.5-11.1-19.2c1.3,0.7,3.4-1,4.3-1.8c2.1-13,4.8-21.3,6.9-31.4l-6.2-0.5c-0.4,3.4-0.7,7.1-0.8,11.2
							c-1.4,1.5-3.2,9.3-5.5,5.8c0.9,2.4,2.7,4.6,2.6,9.6c-5.1,9.6-0.3-11.2-6.3-4c3.1,0.7,3.9,13.2,5.6,20.4c5-2,1.5-16.5-0.2-23.8
							c6.7,0.2,13.4,12.9,15.9,30.1c1.2,13.6-4.6,5.7-3.7,8.1c-2.1,25.4,11,22.1,5.4,43.1c-4.6,8.2-8.6,0.1-11.7,1.8
							c-1.2-11.1,3.3-16.9,3.4-24.3l-2.4,9.1c-1.3-3.6-2.1-11-0.7-14.9c-4.1,6.9-2.3,43-6.5,62.5c1.3,3.5,2.6,9.6,4.4,6.8l-0.4-6.2
							c3.7-5.6,4.4,11.9,6.3,4.1c2.1,8.4,5.6,17.9,3.3,29.6l-5,2c1.4-0.2,3.2-7.6,1.8-10.9c2,5-7.3,17.8-1,23.3l3.7-8.1
							c2.2,8.5,7,19,5.1,29.3c5-4.6-0.5-2.4,5.5-9.6c-7.3,6.2,1.2-26.6-6.5-16.6c6.8-7.4,3.2-13,9.2-22.7c-1.6,0.3-3.2,3.4-2.1-5.3
							c-0.5-0.4-1-1.4-1.4-2c0.1-0.3,0.1-0.4,0.1-0.6c-0.1,0.2-0.1,0.3-0.2,0.5c-0.2-0.4-0.3-0.4-0.1,0.2c-0.8,2.1-1.7,3.7-2.6,4.4
							c-3.6-4.5-3-18.3-4.7-23.1c1-5.2,1.8,2.2,3.6-0.5l-2.6-7.1c3.6-0.6,6.4-13.6,8.1-1.3l0.5-11c2.2-6.4,3.4-15.3,2-20.8
							c1-5.2-3.5-13.2-0.9-8.6l-1.6-17.3l0.9-0.1c1.1-17-4.7-35.2,2.4-54.4c-0.3-2.5-0.6-4.9-0.8-7.8l-38.2-3.3
							c-0.1,3.7-0.6,8-1.9,13.3l-3.3,1.4c0.1,7.4-6,21.5-3.3,25c-9.4,6.7-6.6,35.1-9.8,47.7l4,1c-1.4,8.8-1.4,17.4-1.3,28.6l3.6-0.2
							c1.6,9.8-5.8,23.9-7.5,38.9c-1.2-1.2-0.4-4.9,0.8-7.5c-10.4,16.7,0.7,38.4-7.3,53.8c0.7,4.2-0.1,7.1-1.4,9.8
							c0-0.4,0-0.7-0.1-1c-0.1,0.4-0.2,1-0.3,1.6c-0.9,1.7-1.8,3.4-2.7,5.3c1.1-1.6,2-3.1,2.5-4.5c-0.3,3.1-0.5,7.9-0.3,12.6
							l-4.1,1.5c0,0.4,0,0.7,0,1.1c-2,4.3,1.3,3.9,4.5,1.9c0.3,2.4,0.8,4.6,1.5,6.4c-6.7,2.8,0.4,12.4-6.8,16.5
							c0.7,0.9,1,2.8,1.2,5.2c0.1,1.2,0.1,2.6,0.2,4c0,0.7,0,1.4,0.1,2.1l0,1.1l0,0.3l0,0.1l0.1,0.3c0.3,1.6,0.7,3.4,1.4,5.1
							c0.7,1.7,1.7,3.5,3.2,5c-0.8-0.4-1.4,0.3-1.2-1.4c-0.6,1.5-1.2,3-1.5,4.5c-0.3,1.6-0.2,3.4,0.4,5.9c0,0-1.1-0.9-2.2-1.8
							c-1.1-1-2.2-2-2.2-2s1.2,3.3,2.3,7.2c1.1,3.9,2.2,8.4,2.2,8.4c-1.6,0.4-2.7,0-3.8-1.7c-1.1-1.7-2-4.8-3.3-9.3
							c0.9,4.2,1.3,7.4,1.6,9.6c0.3,2.3,0.3,3.8,0.4,5.2c0.1,1.5,0.2,2.9,0.4,5.3c0.3,2.9,0.7,6.6,1.3,11.9l-2.1-8.1
							c-0.2,1.7,0.3,6.5,0.5,10.5c0.2,4,0.2,7.3-0.8,4.5c-2.1-4.5-3.2,0.5-4.4,7.8c-0.6,3.6-1.2,7.8-1.8,11.1
							c-0.6,3.3-1.4,5.6-2.1,4.9c-0.5-3.6-1-7.5-1.4-11.7c0.4,8.7,0.6,12.4,0.7,13.2c0.1,2.7,0.1,3.9,0.1,4
							c-0.1,0.2-0.5-3.8-0.9-8.1c-0.8-8.7-1.5-18.1-1.2-1.8c-0.2-4.1-0.5-11.1-0.6-14.2c-0.1-4-0.2-7.4,0-10.9
							c-0.3,1-0.6-0.1-0.9-1.8c-0.3-1.7-0.5-4.1-0.8-5.8c-0.2-1.7-0.4-2.8-0.7-2.4c-0.3,0.4-0.6,2.5-1.1,6.7c0.1-4.3,0.3-6.8,0.5-9
							c0.2-2.2,0.3-4,0.4-6.6c-0.1,0.7-0.3,2-0.4,2.4c-0.1,0.5-0.3,0.1-0.2-2.4c0.1-4.9,0.5-5.6,0.8-8.4c-0.2-0.6-0.5,0.3-0.9,2.2
							c-0.3,1.9-0.8,4.8-1.2,8.2c-0.9,6.9-2,16.4-3,25.5c-0.2-7.1-0.4-10.5-0.9-11.4c-0.5-0.9-1.3,0.7-2.7,3.8
							c0.2-3.5,0.4-7.3,0.8-9.5c0.4-2.3,0.9-3.2,1.7-1.5c-0.1-1-0.4-2.9-0.8-5.4c-0.3-2.3-0.8-4.9-1.2-7c-0.5-2.1-1-3.8-1.7-4.5
							c-0.7-0.7-1.4-0.6-2.3,1.2c0.3-1.5,0.1-2.7-0.3-3.7c-0.4-0.9-0.9-1.6-1.2-1.6c-1.7-8-1.4-8.8-3.6-15.9l-0.2,2.5
							c-3.1,0.2-4-1.8-4.2-4.1c-0.1-0.6-0.1-1.2-0.1-1.9c-0.1-0.8-0.1-1.7-0.2-2.7c-0.2-1.9-0.5-3.9-1.3-6.1l0.7,0.1
							c-0.8-21.9-4.3-8.5-4.4-30.2l-3.5,2c-8.5,0.1,0.3-19.3-5.7-30.5l-1.1,4.8c-1.1-1.5-1.2-3.5-0.8-5.8c0.2-1.2,0.5-2.4,0.9-3.7
							c0.4-1.7,0.7-3.5,1.1-5.2c0.8-3.7,1.6-7.9,2-11.9c0.5-4,0.6-8,0.2-10.8c0-2.9,1.9,2.8,3.2,5.8c-0.7-8-1.5-12.3-2.2-14.1
							c-0.7-1.9-1.4-1.3-2.3-0.4c-1.6,1.9-3.7,5-6.4-3.8c0.6-3.3,2.2-4.1,3.3-5.7c1.1-1.6,1.7-4.3,0-12c-0.1-2.5-1.2-5.9-2.7-9.5
							c-1.6-3.7-3.6-7.7-5.6-11.9c-2-4.2-3.9-8.5-5.4-13.6c-1.5-5.1-2.7-11-3.3-18.9c0.1,4.6,0.1,9.1-0.3,11.8
							c-0.4,2.7-1.1,3.5-2.4,1.3c-0.9-2.7-1.6-7.5-2.4-13.2c-0.8-5.8-1.6-12.5-2.6-19c-0.9-6.4-2-12.5-3-16.3
							c-1.1-3.8-2.2-5.3-3.1-2.4c-0.3-3.7-0.4-6.3-0.4-8.3c-1.4-2.2-3.5-7.8-5.4-11.6c-1.9-3.8-3.5-5.5-4.1-0.2
							c-1.3-29.2-4.6-40.7-7.3-46.1c-0.5,6.5-1,13-1.5,19.2c-0.5,6-0.9,11.2-1.3,14.6c-0.4,3.4-0.9,5.1-1.4,4.1
							c-0.5-1-1-4.7-1.6-12.3l-4.7,34.7l-0.4-5.4c-1.8,9-2.7,18.1-2.9,26.5c-0.3,8.4,0,16.3,0.3,23.9c-0.6,1-0.9-0.1-1.1-1.8
							c-0.2-1.6-0.3-3.8-0.5-5c-2.9,11-4.6,18.5-5.3,27.3c-0.4,4.4-0.6,9.2-0.6,15c0,5.8,0.1,12.5,0.5,20.5c0,0-0.8-1-1.7-2
							c-0.9-1-1.7-1.9-1.7-1.9c0.2,2.5-0.4,5.7-1.4,9.8c-1,4.1-2.5,9.2-4.1,15.5c-1.6,6.2-3.3,13.6-4.6,21.4
							c-0.7,3.9-1.2,7.9-1.6,11.9l-0.1,1.5l-0.1,0.7l0,0.3l0,0.2c0,0.7,0,1.3,0,2c0,1.3,0,2.6,0.1,3.9c-0.4-0.3-1.1-0.8-1.4-2.5
							c0.6,11.5-4.2,24.5-7.5,35.9c-0.1,0.4-0.2,0.7-0.3,1.1l-0.1,0.5l-0.1,0.3l0,0.1c-0.1,0.3-0.2,0.5-0.4,0.8
							c-0.2,0.5-0.4,1-0.5,1.5c-0.3,0.9-0.4,1.8-0.2,2.9c0.3,2.1,1.7,4.8,4.6,9.3c0,0,0.5,2.9,0.8,6.3c0.4,3.4,0.7,7.2,0.7,7.2
							c1.5-5.8,2.8-3.9,3.9-0.1c0.6,1.9,1.1,4.2,1.7,5.9c0.6,1.7,1.2,2.6,2,1.5c-0.1,2.1-0.6,4-1.2,5.4c-0.6,1.4-1.3,2.3-2,2.5
							c-1.4,0.5-2.5-1.7-2.3-6c0,0,0.2,0,0.4,0c0.2,0,0.4,0,0.4,0c-1.4-3.5-2.4-4.3-3.1-4c-0.7,0.4-1.3,2-1.7,3.8
							c-0.9,3.6-1.6,7.9-3.3,1.8c-0.8,5.7-1.7,10.7-2.7,14.9c-1,4.2-2,7.5-2.9,10.1c-0.9,2.7-1.8,4.7-2.5,6.8
							c-0.8,2.1-1.4,4.3-2,7.8c0,0,0.3,8,0.5,15.9c0.3,7.8,0.6,15.5,0.6,15.5l-1.2,5.8c-0.2-3.1-0.4-9.6-0.4-15.6
							c0-6.1,0.1-11.5,0.4-12.9c-0.3-8.7-0.5-3.2-0.7,6.3c-0.2,9.4-0.3,22.8-0.3,27c-0.4-1.2-0.6-5-0.6-9.8c0-4.9,0.1-10.7,0.2-16.1
							c0.2-10.9,0.4-19.9,0.3-19.3l-0.4,5.7l0.1,3.8c-0.3,14-0.4,27.8-0.9,35.3c-0.1,0.5-0.3,0-0.5-1.9c-0.2-5.9-0.2-12.2-0.1-17.6
							c0.1-5.3,0.1-9.6,0.1-11c0-2.7,0-4.3-0.2-2.9l-0.9-9.9c0,0-0.1,7.6-0.2,15.2c-0.1,7.8-0.2,15.7-0.2,15.7
							c-0.5,4.9-0.8,2.2-1,2.8c-0.1,0.3-0.2,1.4-0.3,4.6c-0.1,3.2-0.2,8.5-0.3,17.5c0.1-13.8-0.1-23.8-0.4-31.2
							c-0.3-7.4-0.8-12.5-1.4-16.6c-0.6-4.2-1.2-7.5-1.6-10.7c-0.5-3.2-0.7-6.3-0.6-9.6c-1.2,3.6-2.1,3.3-2.7,1.1
							c-0.7-2.2-1.1-6.2-1.5-10.6c-0.2,2.3-1,7.5-1.9,11c-0.4,1.7-0.9,3-1.3,3.1c-0.4,0.1-0.7-0.8-0.9-3.4
							c1.8-6.2,2.8-11.1,3.3-14.9c0.5-3.8,0.6-6.7,0.6-9.5c0-2.8-0.1-5.4,0.2-8.6c0.3-3.1,0.8-6.7,2.2-10.9c-0.9,3-1.5,4-2,3.6
							c-0.5-0.3-1-1.9-1.5-3.3c-0.5-1.4-1-2.8-1.8-3c-0.8-0.1-1.8,0.8-3,5c-0.1-3.5,0.8-4.6,1.9-5.8c1.1-1.1,2.3-2.5,3.2-5.4
							c-1.3-1.6-2-4.4-2.4-7.4c-0.2-1.5-0.3-3.1-0.3-4.7l0-0.3l0-0.5l-0.1-1.1c0-0.7-0.1-1.5-0.1-2.2c-0.1-1.5-0.2-2.9-0.2-4.4
							c-0.6-11.8-1-24.3-3.4-36.7c-1.4-0.2-3,4.3-5.8-0.8l5.1-14.1c-1.4-4.8-8.7-3.4-5.1-13.1c-1,1.4-2.5,3.6-3.4,0.3
							c0-49.8-19.4-99-13.6-150.4c-1.8,7.1-2.7,2.7-3.5-2.5c-0.2,3.4-3.5,0.4-5.3,1.3l2.4-21.5c-5.8-3.1-3.5-22.2-8.8-23.7l1.8,6.4
							c-7.1-7.9-11.4,14.1-19.2,13.8c8.1,8.9-6.4,27.2,5.5,41.9c-1.1,3.8-2.9-2.7-4.4-0.5c3.8,3.6,5.2,8.4,5,17.8l-0.9-0.9
							c4.4,25.5,2.7,36.9,4.5,66l3.5-2.7c0.4,6.2-0.6,7.7-1.2,10.7c6.7,6.3-2.1-17.4,5.1-11.8c-6.5,9.3,5.9,43.6-2,50.3
							c1.3,9.5,4-3.4,5.2,6.1l-2,2.8l3.4,2c0.4,6.3-2.1,9.9-4.1,10.4c0-1.5-1.2-4.2-1.6-5.8c-1.6,8.5,4.1,22.7,3.6,25.6l0.2-9.3
							c2.9,12.8,4.7,27.3,6.8,41.5c0.3,1.8,0.5,3.6,0.8,5.3c0.3,2,0.6,4.1,1,6.1c0.9,5.5,1.7,10.9,2.7,16.1
							c1.9,10.4,3.9,20.1,6.2,27.9l1.1-4.8c1.6,5.8,2.5,9.9,3,13.6c0.5,3.7,0.6,6.8,0.8,10.3c0.1,3.4,0.2,7.1,0.6,11.7
							c0.4,4.5,1.1,10,2.4,16.6l-0.4-0.1c2.1,2,3.7,7.2,4.7,15.5c-1.2-0.7-1.3,5.4-1.5,11.7c-0.2,6.3-0.4,12.8-1.8,10.7
							c1.7,5.6,2.7,8.5,3.4,10c0.7,1.5,1.2,1.6,1.7,1c0.5-0.6,0.9-1.8,1.7-3.2c0.7-1.4,1.7-2.9,3.2-4.6l-0.9,15.1
							c1.1-1.9,1.8-4.2,2.5-4.8c0.7-0.6,1.4,0.5,2.5,5.2c-0.6,0.1-1,1.8-1.2,4.4c-0.2,2.6-0.4,6-0.5,9.7c-0.1,3.6-0.2,7.3-0.6,10.2
							c-0.3,2.9-0.8,5-1.6,5c0.4,14.8,1.3,24.1,2.3,29.7c1,5.7,2,7.8,2.9,9.5c0.9,1.7,1.6,3.2,2.1,8.2c0.5,5.1,0.7,13.9,0.7,30.9
							c1-7.5,1.3-15,1.3-21.3c0-6.4-0.4-11.9-0.9-16.4c-0.9-9-2.2-14.5-1.4-15.2c0-10,0.8-14.9,1.7-16.3c0.9-1.4,1.9,0.7,2.3,7
							c0.5,4.6,0.5,23,0.8,44.2c0.2,10.6,0.4,21.8,0.9,32.2c0.5,10.3,1.2,19.8,2.1,26.2c-0.4-2.9-0.5,1-0.8-1.9
							c0.4,8.5,1,11.2,1.5,12.5c0.5,1.4,1.1,1.4,1.6,5.2c0.5-3.1,0.9-4.2,1.5-1.3c0.6-20.1,1.1-23.3,1.6-27.2
							c0.5-3.9,0.9-8.3,0.9-29.2l-3.4,31.8c0.5-6,1-14.4,1.5-23.2c0.4-8.5,0.9-17.2,1.4-26.6c0.5-8.4,0.9-15.7,1.5-20.6
							c0.5-5,1.2-7.6,2-7c0,4.4-0.2,10.5-0.5,16.7c-0.3,6.2-0.6,12.7-0.9,17.6c0.5,2.7,1-2.2,1.4-6.8c0.4-4.7,0.8-9.2,1.4-6.9
							c0.3,18.7-0.7,28-2.1,37.9c-0.7,4.9-1.4,9.9-2.1,16.6c-0.7,6.7-1.4,15-2,26.8c0.3,2.6,0.7,0,1.2-4.2
							c0.5-4.3,0.9-10.3,1.3-14.9c0.4-4.6,0.7-7.9,0.9-6.9c0.2,1,0.2,6.1,0,18.7c0.3-16.3,0.7-25.5,1.1-31.2c0.5-5.7,1-8,1.6-10.2
							c0.6-2.2,1.3-4.4,1.9-9.5c0.6-5.1,1.2-13,1.5-26l0.6,21c0.2-3.2,0.4-8,0.7-13.6c0.3-5.1,0.6-10,1-12.4c0,0-0.1,8.6-0.1,17.1
							c-0.1,8.8-0.2,17.6-0.2,17.6c0.4-9.4,0.9-14.7,1.5-18c0.6-3.3,1.3-4.5,2.1-5.7c0.8-1.1,1.6-2.1,2.3-4.5
							c0.7-2.4,1.4-6.2,1.8-12.5c-1.3,8.5-2.1,11.9-2.6,12.2c-0.5,0.3-0.8-2.4-1-6.1c-0.2-3.7-0.3-8.3-0.6-12
							c-0.3-3.7-0.7-6.5-1.3-6.6c0.5-7.4,0.9-12.3,1.3-15.6c0.4-3.3,0.9-5,1.3-5.7c0.9-1.3,1.8,1.5,2.8,4.3c1,2.8,2.2,5.6,3.5,4.3
							c1.3-1.3,2.8-7,4.3-20.2c-0.4,4.1-1.5,8.1-2.5,8.8c-1,0.8-1.8-1.8-1.5-9.5c0.8-2.7,1.8-5.6,2.9-7.7c1-2.2,2.1-3.6,3.1-3.3
							c2.2-16.7,1.4-18.1,0.2-18.2c-0.6-0.1-1.3,0.2-1.8-0.8c-0.5-1-0.8-3.1-0.7-7.7c1,1.1,1.6,0.3,1.9-1.6c0.3-1.9,0.3-4.9,0.3-8.4
							c-0.2-7.1-0.8-16.1-0.4-23.4l2.5,9.2c1.6-6.4,2.2-11.5,2.2-15.4c0-3.9-0.6-6.8-1.1-9.6c-0.6-2.7-1.1-5.3-1.2-8.4
							c-0.1-3.1,0.4-6.6,1.9-11.7c0,0,0.6,4.8,1.2,10.1c0.6,5.2,1.1,10.7,1.1,10.7l1.2-17.1c0,0,0.7,2.5,1.5,5
							c0.7,2.6,1.4,5.2,1.4,5.2c0.1-11.2,0.4-17.3,1.2-22.7c0.8-5.4,2-10.1,3.8-17.8c-1.5,0.7-2.9-1.5-3.8-5.3
							c-0.9-3.8-1.2-9-0.3-15.3c1.7-3.7,2.4-2.2,2.9-1.8c0.5,0.3,0.9-0.8,2.1-10.4c0.9,2.4,1.8,5.2,1.9,8.4c0.1,3.2-0.6,6.8-2.8,10
							c1,1.6,1.5,6.1,2.5,7.9c2-4.6,3.3-11.8,4.1-18.5c0.4-3.4,0.7-6.6,1-9.5c0-0.4,0.1-0.7,0.1-1.1c0-0.2,0-0.4,0-0.6
							c0-0.4,0.1-0.8,0.1-1.2c0.1-0.7,0.1-1.4,0.2-2c-0.2,0.9-0.4,1.8-0.7,2.7c-0.1,0.2-0.1,0.4-0.2,0.6c0,0.1-0.1,0.2-0.1,0.3
							c0,0.2-0.1,0.3-0.1,0.5c-0.2,0.6-0.4,1.2-0.6,1.6c0,0,0-0.5,0-1.4c0-0.2,0-0.5,0-0.7c0-0.2,0-0.4-0.1-0.6
							c0-0.4-0.1-0.8-0.2-1.2c-0.2-1.8-0.5-4.2-0.8-6.6c-0.6-4.8-1.2-9.6-1.2-9.6c1.9-2.7,2.7-0.2,3.5,2.3c0.2-3.8-1.2-6.7-0.7-12.2
							c2.9,1.9,6.1,2,6.4,10.1l-0.7-18.1c0.8-0.5,2-2.6,3.2-4.3c0.2-0.2,0.3-0.4,0.4-0.6c0.1-0.1,0.1-0.2,0.2-0.3
							c0.1-0.1,0.1-0.2,0.2-0.2c0.2,0,0.5-0.1,0.7-0.1c0.4,0,0.8,0.1,1,0.2c0.5-0.3,0.4-0.7,0.1-1.4c-0.3-0.7-0.9-1.7-1.5-3
							c-0.5-1.3-1-2.8-1.2-4.2c-0.2-1.4,0-2.5,0.6-2.6c-0.5-1-0.9-2.3-1.1-3.9c0.3-0.8,0.7-1.1,1.2-1.3c0.4-0.2,0.9-0.2,1.2-0.5
							c0.3-0.3,0.5-0.8,0.5-2.3c0-1.4-0.2-3.8-0.7-7.9c0,0,0.9,3.1,1.8,6.7c0.9,3.5,1.7,7.5,1.7,7.5c-0.1-1.4-0.4-3.4-0.8-5.7
							c-0.4-2.3-0.9-4.9-1.5-7.5c-0.6-2.6-1.1-5.2-1.6-8.1c-0.4-2.9-0.7-6-0.7-9.9c0-3,0.2-3.7,0.5-2.8c0.3,0.8,0.6,3.2,1,6
							c0.8,5.7,1.7,13,2.2,15.2c-0.3-2.9-0.6-6.7-0.9-10.7c-0.3-4-0.5-8.1-0.6-11.6c-0.1-3.5,0-6.3,0.2-7.3c0.2-1,0.6-0.2,1.1,3.9
							c0.1,3.2,0,4-0.1,4.5C265.4,228.9,265.3,229.1,265.3,230.6z M277.8,254.9c-0.4,0.1-1.1,0.6-1.6,0.7c-0.4,0.1-0.6-0.4-0.1-3
							c1.4-3.6,1.9-3.9,2-3C278.3,250.6,278,252.9,277.8,254.9z M338.2,461.7c-0.9,1.7-1.8-4.5-2.4-13.2
							C336.7,450.6,337.5,454.5,338.2,461.7z M428.5,172.8c-0.1-0.1-0.1-0.2-0.2-0.3C430.1,166.5,429.4,168.6,428.5,172.8z
							 M426.4,185.4c0.5,1.3,1,1.2,1.6,0.7c-0.9-0.9-0.9-3.8-0.5-7C426.4,180,425.7,181.6,426.4,185.4z M200.2,408.6l0.1,7.9
							c-0.3,2.2-0.3,1.7-0.3,0.1C199.9,414.9,200.1,411.9,200.2,408.6z"/>
						<path id="XMLID_420_" class="st2" d="M328.8,445.2c0-2.7,0.2-4.8,0.5-6.9C328.6,438.6,328.3,440.3,328.8,445.2z"/>
						<path id="XMLID_419_" class="st2" d="M262.2,263.9C262.2,263.9,262.2,264,262.2,263.9c0.1,0.4,0.3,0.8,0.5,1.1L262.2,263.9z"
							/>
						<path id="XMLID_418_" class="st2" d="M417.9,155.4c-0.9,2.5-1.8,3.8-2.6,4.7C416.2,160.4,417.2,159.3,417.9,155.4z"/>
						<path id="XMLID_417_" class="st2" d="M430.6,252.5l-0.7-8.1c0.1,3.9-0.8,5.3-1.5,7.2C429.3,251.5,430.6,250,430.6,252.5z"/>
						<path id="XMLID_416_" class="st2" d="M404.3,321.8c0.4,1.2,0,2.5,0.4,3.7l1.8-0.3C406.5,320.2,405.2,316.6,404.3,321.8z"/>
						<path id="XMLID_415_" class="st2" d="M417.5,259.5c-3.3,0.5-2.3,5.6-1.9,11.3c0-0.3,0-0.7,0-1
							C420.1,271.7,418.8,265.6,417.5,259.5z"/>
						<path id="XMLID_414_" class="st2" d="M415.7,272.2c0.1,1.8,0.1,3.5-0.1,5.2C417.4,278.1,416,275.3,415.7,272.2z"/>
						<path id="XMLID_413_" class="st2" d="M428,201.5c-0.9,2.7,4.1,1.8,2.7,3.3C434.7,207.9,426.4,186.7,428,201.5z"/>
						<polygon id="XMLID_412_" class="st2" points="406.7,263.7 410.8,261.8 407.6,258.6 						"/>
						<path id="XMLID_411_" class="st2" d="M411.2,219.1l-1.4,9c0.7-0.1,1,1.1,1.3,2.5C411.4,225,412.4,219,411.2,219.1z"/>
						<path id="XMLID_410_" class="st2" d="M411.1,230.6c-0.2,2.9-0.2,5.7,0.4,7.3C411.5,236.3,411.5,233,411.1,230.6z"/>
						<polygon id="XMLID_409_" class="st2" points="405.9,251.3 406.9,248.7 407.4,242.3 						"/>
						<path id="XMLID_408_" class="st2" d="M415.4,121.9l-0.8-9.9c-1.3-1.1-2.3,1.6-1.9,5.3C413.6,119.7,414,123.4,415.4,121.9z"/>
						<path id="XMLID_407_" class="st2" d="M403.4,151.4c0.9-2.6,1.8-2.8,3.2-4.2l-5-0.5L403.4,151.4z"/>
						<path id="XMLID_406_" class="st2" d="M403.2,122.5c-1.3-1-3.5-14.5-3.6-1.9C401,121.6,401.8,131.6,403.2,122.5z"/>
						<polygon id="XMLID_405_" class="st2" points="402.4,168.7 402.7,166.2 394.5,165.5 						"/>
						<path id="XMLID_404_" class="st2" d="M404.1,301.4c3.5-11.3-4.6-3.4-0.8-13.6c-1.5-3-3.1,8.3-4.4,5.3
							C399.9,300.4,398.3,303.9,404.1,301.4z"/>
						<path id="XMLID_403_" class="st2" d="M398.9,293.1c-0.2-1.2-0.4-2.4-0.7-3.7C398.4,291.4,398.6,292.4,398.9,293.1z"/>
						<polygon id="XMLID_402_" class="st2" points="154.6,51 155.3,43.3 153.2,48.5 						"/>
						<path id="XMLID_401_" class="st2" d="M146.7,37.5l4.9-2.5l-5.3-3.8C146.7,32.8,147.6,36,146.7,37.5z"/>
						<path id="XMLID_400_" class="st2" d="M271.6,273.5l1-1.1c1-1.4,1-1.8,1-2.7c0,0-0.5,1.1-1,2
							C272.2,272.7,271.6,273.5,271.6,273.5z"/>
						<path id="XMLID_399_" class="st2" d="M269.3,248l0.1,0.8c0,0,0-5-0.1-10.1c-0.1-5.2-0.1-10.3-0.1-10.3L269.3,248z"/>
						<path id="XMLID_398_" class="st2" d="M268.9,273.5c0.1,0.3,0-0.5-0.1-1.3c-0.1-0.8-0.2-1.7-0.1-1.4c0.1,0.9,0,0.1-0.2-1.1
							c-0.2-1.5-0.4-2.8-0.6-3.9C267.5,263.8,267.4,263.8,268.9,273.5z"/>
					</g>
				</g>
			</g>
		</g>
	</g>
	<g id="XMLID_4_">
		<g id="XMLID_296_">
			<g id="XMLID_300_">
				<g id="XMLID_301_">
					<g id="XMLID_302_">
						<path id="XMLID_389_" class="st2" d="M356.7,277.4c0.4-0.6-2.9-1-3.5-1.3C353.7,277.4,357.5,277.5,356.7,277.4z"/>
						<polygon id="XMLID_388_" class="st2" points="361.9,290.1 360.6,289.6 363.5,291.9 						"/>
						<path id="XMLID_387_" class="st2" d="M359.7,300.5c5.8,0.1-0.1-4,2.2-5.4l1.3-0.1l-4.3-1.7
							C359.2,295.7,361.6,299.2,359.7,300.5z"/>
						<path id="XMLID_386_" class="st2" d="M346.5,303.6c2.2,0.1,1.6,1.6,0.9-1.2c-0.3,0.1-0.4,0.1-0.6,0.1
							C346.8,302.8,346.8,303.1,346.5,303.6z"/>
						<path id="XMLID_385_" class="st2" d="M346.8,302.6C346.9,301.5,344.9,302.9,346.8,302.6L346.8,302.6z"/>
						<path id="XMLID_384_" class="st2" d="M347.1,307.9l-1.7-1.8c-1.3,0-1.9,1.3-2.7,0.6C343.4,308.4,344.8,308.4,347.1,307.9z"/>
						<path id="XMLID_383_" class="st2" d="M350.9,310.1l-0.7-0.9C349.6,309.2,349.4,309.4,350.9,310.1z"/>
						<path id="XMLID_382_" class="st2" d="M348.8,307.3l1.4,1.9c0.9,0,2.8,0.3-0.5-0.9C351.4,308.8,349.8,308.2,348.8,307.3z"/>
						<path id="XMLID_381_" class="st2" d="M349.8,306.5c1.4-0.6,2.4-1.5,4,0.4C353.6,304,349.6,303.6,349.8,306.5z"/>
						<path id="XMLID_380_" class="st2" d="M365.4,302.2l1.9-0.8l-1.7-1.3C366.4,300.8,363.6,301.9,365.4,302.2z"/>
						<path id="XMLID_379_" class="st2" d="M342.3,316.4c1.2,0.3,3.3,0.2,4.8,0.4l-1.2-1.3C345.1,315.8,344.1,316.7,342.3,316.4z"/>
						<path id="XMLID_378_" class="st2" d="M347.2,316.7l1.7,2C349.4,317.4,348.5,316.9,347.2,316.7z"/>
						<polygon id="XMLID_377_" class="st2" points="357,311.6 353.3,308.1 357,312.2 						"/>
						<polygon id="XMLID_376_" class="st2" points="341,322.5 338.4,321 342.2,323.5 						"/>
						<path id="XMLID_375_" class="st2" d="M340.6,326.6c-2.1-1.1-4,0.1-5.3-0.8c0.2,1.2,2,2.5,3.6,3.7
							C338.1,328.4,338.5,327.5,340.6,326.6z"/>
						<path id="XMLID_374_" class="st2" d="M341.2,331.4c-0.5-0.6-1.3-1.2-2.3-1.9C339.3,330.1,340,330.7,341.2,331.4z"/>
						<path id="XMLID_373_" class="st2" d="M347.8,321.4c-0.7,0-2.7-0.2-3.7,0.6l3.5,0C347.6,321.8,347.7,321.6,347.8,321.4z"/>
						<path id="XMLID_372_" class="st2" d="M347.7,322l-0.1,0c-0.2,0.7-0.4,1.1-0.5,1.3C347.2,323.1,347.3,322.7,347.7,322z"/>
						<path id="XMLID_371_" class="st2" d="M347.8,321.2c0,0.1,0,0.1,0,0.2C348.1,321.4,348.2,321.3,347.8,321.2z"/>
						<path id="XMLID_370_" class="st2" d="M353.2,315.2c1.7,1.3,3.3,3.7,6.5,2.4C357.5,316.5,355.7,317.2,353.2,315.2z"/>
						<path id="XMLID_369_" class="st2" d="M352.1,321.3l1.1-1.5c-0.9-0.1-2.2-0.1-3.1-0.8L352.1,321.3z"/>
						<polygon id="XMLID_368_" class="st2" points="353,322.3 352.1,321.3 351.7,321.8 						"/>
						<path id="XMLID_367_" class="st2" d="M344.9,329.2c1.3,1,1.3,1.9,1.3,2.8c0.9-0.8,1.4-1.8,1.6-2.7
							C346.8,328.9,345,328.1,344.9,329.2z"/>
						<path id="XMLID_366_" class="st2" d="M346.5,325.7c0.1,0.1,0.1,0.1,0.2,0.2C347,325.9,347.1,325.8,346.5,325.7z"/>
						<path id="XMLID_365_" class="st2" d="M344.4,340.9c0.2,0,0.4,0,0.6,0c-0.2-0.1-0.4-0.1-0.6-0.2L344.4,340.9z"/>
						<path id="XMLID_364_" class="st2" d="M348.5,329.2c0.8-0.6,0.1-1.2-0.9-1.8c0.2,0.6,0.3,1.2,0.2,1.9
							C348.3,329.4,348.6,329.5,348.5,329.2z"/>
						<path id="XMLID_363_" class="st2" d="M342.2,334.3c0.8-0.2,1.5-0.6,2.1-0.9C343.2,333.5,341.4,333.9,342.2,334.3z"/>
						<path id="XMLID_362_" class="st2" d="M345.7,326c0,0-0.1-0.1-0.1-0.1C344.8,325.9,345.2,326,345.7,326z"/>
						<path id="XMLID_361_" class="st2" d="M345.7,326c0.4,0.5,1.2,0.9,1.8,1.4c-0.2-0.5-0.5-1-0.9-1.4
							C346.4,326,346.1,326,345.7,326z"/>
						<path id="XMLID_360_" class="st2" d="M365.3,348c-3.1-0.8-5.6-3.3-1.9-4.2c-2-2.1-12.4-3.1-18.4-2.8c1.3,0.3,2.6,0.6,4.1,2.6
							c1.8-0.2,4.7-2.9,7.2-0.9c1.2,2.6-1.5,1.6-3.3,2.4c4.1-0.1,5.1,4,10.9,4.6l-1.6-2.4C363.2,347.3,364.4,348.3,365.3,348z"/>
						<path id="XMLID_359_" class="st2" d="M346,337.7l-0.2-0.8c-0.7,0.7-2.1,1-4.7,1.5c1.3,1.5,2.4,1.9,3.4,2.2l1.1-3.3L346,337.7z
							"/>
						<path id="XMLID_358_" class="st2" d="M346.3,333.9c3.3,1.2,4.4,3.2,8.2,2.9c0.2-2.1-2.5-2-3.8-3.5c0.2,3.4-1.7-1.3-4.1,0.7
							c-0.4-0.8-0.5-1.4-0.5-1.9c-0.5,0.5-1.2,1-1.9,1.4c0.1,0,0.1,0,0.2,0l0,0c0,0,0,0,0.1,0c0.4-0.1,0.7-0.1,0.4,0.1
							c0,0,0,0.1,0.1,0.1C345.5,333.6,345.9,333.7,346.3,333.9c-0.9,0.8-0.9,0-1.3-0.4c-0.2,0-0.3-0.1-0.5-0.1c0,0,0,0,0,0l1.2,3.7
							C346.3,336.4,346.4,335.5,346.3,333.9z"/>
						<path id="XMLID_357_" class="st2" d="M366.6,320.8c-0.3,0-0.6,0-0.8-0.1C366.2,321,366.4,321.2,366.6,320.8z"/>
						<path id="XMLID_356_" class="st2" d="M364.3,321.7c-0.4-0.3-1.7-0.8-1.2-1.5c1.2-0.5,1.6,0.3,2.7,0.5c-0.8-0.6-2.1-2.1-4-1
							l0.4,0.3c-1.4,1.1-6,1.9-6.4,1.6C358.9,321.9,361.1,322,364.3,321.7z"/>
						<path id="XMLID_355_" class="st2" d="M356.2,328.1l1.1,3.1l3.2-0.8l-1.8-0.3C359.7,328.6,357.5,328.5,356.2,328.1z"/>
						<polygon id="XMLID_354_" class="st2" points="342.6,340.9 339.1,339.8 343.9,342.4 						"/>
						<polygon id="XMLID_353_" class="st2" points="342.3,344.5 339.3,343.8 341,345.1 						"/>
						<path id="XMLID_352_" class="st2" d="M340.5,552.8l0.7,1C341,553.3,340.8,553,340.5,552.8z"/>
						<path id="XMLID_351_" class="st2" d="M341.9,547l-1.5-0.5C341.2,547,341.8,547.2,341.9,547z"/>
						<path id="XMLID_350_" class="st2" d="M325.1,431.9c-3.1,0.6-7.9,1-4.4,1.6l3.5,0.3C323.8,432.8,324.3,432.2,325.1,431.9z"/>
						<path id="XMLID_349_" class="st2" d="M333.4,495.7c0.4,0,0.7-0.1,1.1-0.1c-1.1-0.5-2.1-1-3.1-1.4
							C332,494.6,332.7,495.1,333.4,495.7z"/>
						<path id="XMLID_348_" class="st2" d="M347.3,499.4l-2.5,1.1C345.7,500.3,346.5,499.9,347.3,499.4z"/>
						<path id="XMLID_347_" class="st2" d="M337.7,585.3l3.3,1.6C341.3,585.4,339.4,585.7,337.7,585.3z"/>
						<path id="XMLID_346_" class="st2" d="M336.3,381.2c-1.5,0.7-2.3,1.4-2.6,2.1C335.9,382.4,339,382.1,336.3,381.2z"/>
						<path id="XMLID_345_" class="st2" d="M304.8,543.2c0.5,0.6,1.2,1,1.9,1.1C306.3,543.7,305.7,543.3,304.8,543.2z"/>
						<path id="XMLID_344_" class="st2" d="M333.1,386.2c0.4-0.1,0.6-0.2,0.9-0.4c-0.4-0.9-0.7-1.7-0.3-2.5
							C332.1,383.9,331,384.7,333.1,386.2z"/>
						<path id="XMLID_343_" class="st2" d="M311.7,699.9c-0.2,0.1-0.3,0.1-0.5,0.2C311.7,700.2,311.7,700.1,311.7,699.9z"/>
						<path id="XMLID_342_" class="st2" d="M270.6,726.5c-0.1-0.4,0-0.9,0-1.4C270.3,725.3,270.3,725.7,270.6,726.5z"/>
						<path id="XMLID_341_" class="st2" d="M338,358.5C337.9,357.7,337.6,358.3,338,358.5L338,358.5z"/>
						<path id="XMLID_340_" class="st2" d="M352.2,357.6c0.4,0.2,0.8,0.5,1.6,0.6C353,358,352.5,357.8,352.2,357.6z"/>
						<path id="XMLID_339_" class="st2" d="M352.8,398C352.8,398,352.8,398,352.8,398C353.5,397.9,353.4,397.9,352.8,398z"/>
						<path id="XMLID_338_" class="st2" d="M339.8,357.7c-0.5,0.2-0.9,0.5-1.2,0.8C338.8,358.4,339.2,358.1,339.8,357.7z"/>
						<path id="XMLID_337_" class="st2" d="M338.1,357.5c0.2-0.2,0.3-0.4,0.5-0.6C338,356.7,337.7,356.7,338.1,357.5z"/>
						<path id="XMLID_336_" class="st2" d="M338,359.6c0-0.4,0.3-0.8,0.6-1.1c-0.3,0.1-0.5,0.1-0.6,0.1
							C338,358.8,338,359.1,338,359.6z"/>
						<path id="XMLID_335_" class="st2" d="M315,636.3c-0.1,0-0.2,0.1-0.4,0.1C315.9,637.5,315.8,637.1,315,636.3z"/>
						<path id="XMLID_334_" class="st2" d="M356.5,458.6c0,0-0.1-0.1-0.1-0.1c0,0-0.1,0.1-0.1,0.1L356.5,458.6z"/>
						<path id="XMLID_333_" class="st2" d="M358.5,461.8c-4-2-3.4-2.6-2.3-3.2l-10-1.1L358.5,461.8z"/>
						<path id="XMLID_326_" class="st2" d="M338.7,566.9l3.4-1.3c4.6,3.3,2.5,4.6,7.2,3.7c-10.6-2.4,0.4-7.6-10.2-10l2.5-0.8
							c-0.2,0.3,0.4,0.5,0.3,0.9c5.6-1.4-7.3-3.4-5.2-6.2c1-0.9,2.7-1.4,3.9-0.4l-2.1-3c0.3-0.7,2.2-0.1,1.8,0.5l-0.1-3.9l0.3,0.1
							c-1.6-0.9-3.9-2.6-4.9-3.4c1.7-0.6,1,0.7,2.4,0.7l-2.2-2.6c2.9-0.3,5.3,2,4.6,3.3c11,0.2-2.3-2.2,4.7-5.1l1,2.2
							c6.3,0,4.4-2,8.6-3.4c-2.1,0.1-10.4,2.5-12.6-0.3c0.9-0.5,1.5-1.2-0.4-2.9c3.8,0.8,3.1-0.6,3.2-2.1l5,1.1
							c-1.1-1.9-3.7-2.3-5.8-3.7c0.9-1.7,4.8-1.3,8.2-1c1.4-2.7-6.6,0.7-6.9-2.8c2.4-2,0.7-4-1.8-7.5c2.1-1.3,3,0.9,4.6,0.6
							l-3.7-2.3c0.2-0.3,1.4,0,2,0.2c-1.3-1.5-5-1.1-6-3.3c-5.4-1.6,8.9-2.4,3.1-6c1.5-0.3,3,0.9,5,1.1c-3.5-4.1-2.4-3.4-7.4-7.3
							l3.8-1.6c-4.1,0.9-8.1-2.1-11.4-4.8c-1.9,0.2-3.6,0.4-4.5,0.6l-2.1-3.6c0.9-0.2,2.6,0.5,4.6,1.4c-0.4-0.3-0.7-0.6-1.1-0.8
							c2.1-0.7,4.9,0.4,7.5,1.8c-1.1,0.2-2.2,0.3-3.3,0.5c2.9,1.4,6.1,2.7,9.1,3.2c-0.5-0.3-1-0.8-1.2-1.3c0.8,0.4,1.5,0.6,2,0.6
							c0.5,0-0.5-0.5-1.7-1.3l5.7,0.4l-2.2-0.6l4.3-3.3c-5.1-4-12.8-8.1-14.3-13.1c3.9,1.9,6.6,1.6,11.5,2.6c-5.4,0.2,1.5,3.9,0,6
							c0.8-1.1,3-0.4,3.8,0.1l-3.8-5.1c4,0.9,3.2-0.3,5-1c-8-0.8-4.6-4.2-6.7-6.3c2.7,0.4,5.3,1.4,4.2,3.3c6.4-1.1-8.6-4.8-3.2-6
							c0,0.5-0.5,0.7,0.8,1.2c-2.1-1.6,0.3-4.2,2.5-3l0,0.5c1.6-3.2,2.1-10.2-4.5-12c0.9,0.1,8,2.1,9.3,2.5L334,452.6
							c5.6,1.7,19.7,2.4,22.4,5.8c1-0.6,2.1-1.4,0.4-3.5c-0.9,0.4-8.6-0.3-8.9-1.2c6.8-0.8,3.7-0.7,9.6-2.1
							c-1.4,0.6-10.2-2.1-9.6-3.4c1.3,0.5,8.9,1.7,9.7,2.3l-8.2-5c1.4,1.1,7.4,1.6,10.1,1.4c-1.8,0,0.7-2.7,0-3.8l-2.3,0.9
							c2.1-3.4-11.7-6.1-10.5-9.6c1.7,0.8,11,3.3,12.5,1.7c-4.3-1.7-21-8.1-23.8-12l2.7-0.1l-2.5-3c6.5,2.9,19.9,10,25,13.5
							c2.3-0.9,3.1,0.2,3.3-1.8c2.6-0.2,3.4,1.8,3.5,2.5l2.5-4.4c-5.3-0.9-4.6-4.7-9-5.4l4.4,6.2c-5.3-0.9-14.4-6-12.8-9.1
							c2.3-0.4,9.3,2.5,11,2.8c-1.7-0.8-2.8-3.9-1.5-3.9l2.5,2c2.4-1.5-6.4-4.4-0.9-5.7c0.5-0.7,7.3-0.9,4.2-1.7
							c-6.3,0-24.9-3.5-29.3-5.2c0.5-0.2,6.6-2.9,9.7-3.2c5-0.3,10.9,4.2,15.1,3.9c-1.4-0.3-3.1-1.4-3.6-1.8
							c1.4-0.6,4.4,1.2,4.1-0.7c-5.3-1.4,1.2-3.5-4.4-1.7c-1.2-2,1.5-1.6,1.6-3.7c-3.6-0.1-11.4-4.2-12.6-6.2c1.3,0.4,3.2,0.3,4,0.3
							c1.2-3.4,4-4.8,4.7-8.1c1.4,0,3.2-1.3,5.4-0.2c-0.9-0.7-2.6-1.5-2.5-2.5c5-1,0.3,2.4,6.1,2c-3.1-0.8-3.8-3.5-5.4-5.3
							c-4.9-0.5-1.6,3.2,0.1,5c-6.6-1.3-13-5.2-15.4-9.3c-1.1-3.1,4.5-0.3,3.7-1c2.2-4.9-10.7-6.7-5-10c4.6-0.8,8.4,1.6,11.5,1.8
							c1.1,2.6-3.4,2.9-3.5,4.4l2.4-1.5c1.3,1,2,2.7,0.6,3.3c4.1-0.7,2.5-8.5,6.8-11.8c-1.3-1-2.5-2.5-4.3-2.3l0.3,1.4
							c-3.6,0.5-4.2-3.3-6.1-2c-2.1-2.2-5.4-4.8-3-6.8l4.9,0.5c-1.4-0.2-3.2,1-1.8,1.9c-1.9-1.4,7.2-2.3,1.2-4.7l-3.7,1
							c-2.1-2.2-6.8-5.3-4.8-7.1c-4.9,0,0.4,0.6-5.4,1c7.2,0.1-1.4,5.3,6.3,4.7c-6.8,0.2-3.3,2.1-9.2,3c1.6,0.3,3.2-0.1,2,1.5
							c0.4,0.2,1,0.5,1.3,0.7c-0.1,0-0.1,0.1-0.1,0.1c0.1,0,0.1,0,0.2-0.1c0.2,0.1,0.3,0.1,0.1,0c0.8-0.3,1.7-0.5,2.6-0.4
							c3.5,1.6,2.8,4.4,4.5,5.7c-1,0.9-1.7-0.8-3.5-0.6l2.5,2c-3.6-0.6-6.4,1.6-8-1.3l-0.6,2.2c-2.2,0.9-3.4,2.5-2.1,4
							c-1,0.9,3.4,3.4,0.8,2l1.5,3.9l-0.9-0.1c-1.1,3.3,4.4,8.2-2.7,10.9c0.7,1.3,1.5,2.7,0.1,4.5l-3.1-0.2c0.8,1.7-3.9,3.8-0.9,5.1
							c-8.5,0-3.2,6.8-5.2,9.2l4,0.9c-0.6,1.8,0.2,3.7,1.3,6.3l3.5,0.6c2.5,2.5-3.5,4.4-3.7,7.6c-1.3-0.5-0.8-1.2,0.1-1.6
							c-8.7,2,4.2,8.8-2.2,11c1.1,1.1,0.6,1.6-0.4,2c0-0.1,0-0.2-0.1-0.2c-0.1,0.1-0.1,0.2-0.1,0.3c-0.7,0.2-1.5,0.5-2.1,0.8
							c0.9-0.2,1.7-0.4,2.1-0.6c-0.1,0.6,0.2,1.7,0.9,2.8l-3.9-0.4c0,0.1,0,0.1,0.1,0.2c-1.6,0.6,1.6,1.1,4.6,1.2
							c0.5,0.6,1.2,1.2,2,1.7c-6.2-0.5,1.6,2.9-5.2,2.6c3,1.3,1.4,5.2,8,7.1c-0.9-0.1-1.3,0.1-1.3-0.5c-1,0.9-1.9,1.8-0.3,3.1
							l-4.9-0.5l6,3.6c-3.2,0.8-5,1-8.4-1.1c5,4.5,1.6,3.1,6.7,7.1l-3.1-0.8c-0.1,1,3.7,3.5,1.1,3.6c-6.4,1.1-3.1,11.1-9.7,15.8
							c9.4,0.7-4.6,1.9,2.4,3.5c-2.2-0.1-3.6,0.5-5.3-0.9c1.5,3.4-4.3,3.8,1.2,7c-2.2-0.1-3-1.3-4.4-1.2c0.4,0.3,1.7,1.3,0.3,1.4
							c-1.3,0-1.7-0.8-2.6-1.5c-0.2,3.1,6.4,4.8,12.6,6.2c-3.3,0.9-3,1.8,0.9,3.7c-2.2,0.1-4.5,0.6-4.8-1.4c-0.5,1-4.3,5.9,0.7,7
							c-1.3,0.1-0.7,1.4-0.1,1.8c-0.8,2.3-1.3,2.4-1.3,4.9l1-0.5c5.9,2.1,1,2.2,1.3,4.2l-0.6-0.2c-5.2,3.4,1.7,2.3-4.1,5.6l3.8,0.5
							c8,2-5.5,2.8-2.9,5.9l2.3-0.5c2.5,1.9-11.8,1.6-13,2.7c-0.8,0.2-1-0.7-1.5-1.2c-5.5,2.6,4.8,1.5,5.4,4.3c-2.8,0-6.6-2-7.5-0.3
							c-2.3,0.5,7.6,6.9,2,8.3c2.2-0.1,4.3-0.2,5.6,1.3c0.4,2-8.8,3.5-2.7,6.5c-0.6,0.1-1.2,0.1-1.7,0c1.4,1.8,1.8,5.2,5.2,6.8
							c-13.3-1.3,4.5,10.2-7.5,7.8l-0.3,4.6l-1.2-0.4c-1.4,2.7,1.3,4.3,4,5.8c-0.9,0.5-2-0.2-2.6-0.4c-3.3,3.7-2.8,4.2,2.4,8.8
							l-4-0.4c2.1,1.4-7.3,4.8-3.6,9.7c-0.4-0.1-1.2-0.4-1.7-0.8c3.6,5.5-13,8.8,0.8,13.3l2.9,3.7c1.9-3.7,6,1.8,8.7,0.7
							c0.5,1.7-5.1,3.1-5.4,1.1l0.8-0.2c-7.2-2.2-3.6,4.3-8.6,3.2c-1.2,7.8-6.8,14.4-8.5,21.5l5.9,0.3l-0.8,2.4
							c-1.5,0.4-4.7,0-4.1-1.8c-3.4,0.3,2.1,3.6,3.4,3.9c-3,3-6.4-2.7-6.8-1.7l0.1,1.5l0.7-0.2c2.1,1.7,4.6,2.3,3.9,4.4
							c-1.4,1.1-3.7,0-4,0.5c-0.4-0.1-0.6,0.1-0.3,0.8l-1.1,3.1l4.8-0.4c2,1.9-0.8,2.9,4.6,2.5c-8.3,0.5-5.2,11.2-7.9,12
							c2.9,2.6,2.5,4.6,1.6,6.9c1.1-0.4,6.2,0.3,5.2,2.2c-10.4-2.9-5.3,2.9-13.2,3c5.3-0.5,0.1,6.1,7.6,5.2c-1.2,1.6-4-0.7-6.7,0.1
							c3.2,4.9-4.5,8.5-4.1,13.9c1.4,0.4,3.6-0.1,5.5,1.4l-7.4,1.3c0.5,1.1,7.8,2.5,2.6,3.4c1.2,0,3-0.1,3.3,0.7
							c-8.7,8.6,1.4,21.5-13.3,29c2.9-0.8,3,0.1,2.9,1.2c0.8-0.6,3.4,0.7,5.3,0.9l-6,3.2c5,1.8-0.6,4.6,4.3,6l-0.6-1.5
							c5.5,3,13.5,0.1,21,1.9c-6.3-3.3,10.9-3.3,2-8.5c1.7-0.4,2.3,1.1,4.1,1.1c-3.1-1.5-3.5-2.6-1.7-4.2l0.8,0.4
							c0.3-5.4,3.9-7,7.2-12.4l-3.8-0.3c0.8-1.2,2-1.2,3-1.6c-5.3-2.6-1,3.5-7,0.9c7.9-0.1,1.9-8.9,10.7-8.3c0.4-1.9-4.4-0.3-4-2.2
							l2.4,0l-2.9-1.1c0.7-1.2,3.8-1.2,5.8-0.9c-0.3,0.3,0.4,1,0.5,1.4c3.1-1.1,0-4.8,1-5.2l-1.8,1.6c-1.1-5.7,3.2-11.6-0.5-17.6
							l-1.8,0c-2.5-4.6,2.6-2.7,1.9-7.3l0.4,0.2c-1.6-1.2-2.2-2.5-1.8-3.7c1.8,1.5,4.4-1.2,6.4,0.6c-2.6-4.9-2.3-2.6-8.3-6.7l3-0.1
							c-2.4-1.5-3.8-1.8-4.1-4.1c2.1,2.3,4.7-0.5,7.6,2.2c7.3-3.2-5.1-8,4.6-8.1c-7.6-3.7-5.3,3-6.7,1.5c-2.8,0.4-5.7-2.9-4.6-4.2
							c0.5-1.4,10.8-0.4,11.4-4c-0.1,0.4,0.5,0.5,0.4,0.8c2.3-0.9-2.2-3.2,1.4-4.2c-4.7-1.9,0.7-2.1-5.4-3.6l0.8,3.6
							c-1.2-2.2-8.2-5.4-4-7.8c1.2,0.5,2.7,1.7,3.5,2.6c2-0.5-0.9-2,1.2-2.5c6.2,1.5,0.5,4.3,4.9,7.3c2.8-0.4-3.7-4.7,2.8-2.3
							c-8.3-3.2,1.8-3.3-4.2-7.1l3.7,0.9c-0.5-0.5-2.1-1.7-1.9-2.4l4.6,2.3c-3.7-2.8,4.4-3.1,2.5-5.4c-0.7,4-4.7,0-7.7,1.1
							c-4-5.9,10.3-0.9,9.6-6.7c0.4,0.8-2.8,2.3-4.3,0.8c1-0.9,2.7-2,4.8-2.2c0-3.8-3.9-0.2-5.9-2.2c4.8-0.3-1.5-2.2-2.6-4l3.8,0.8
							c3.3-3.7-7.7-2.7-4-5.8l4.9,2.6l-1-2.2l4.2,1.3c-2.8-2.8-1.8-3.2-0.2-5.1c-2.8-0.1-6.8-1.7-6.6-3.5c2.5-0.8,3.5,1.4,3.4-1.3
							c2.2,1.1,5.1,2.3,1.4,2.7c1.2,0.4,2.3,1.1,3.5,1.4c2.9-0.8,1.3-3.3,1.4-4.2c-0.2,0.3-0.5,0.7-1.1,0.8l-4.5-4.8
							c1.5-0.3,2.6,0.4,3.6,1.1c-0.3-0.8-1.9-1.7-2-2.9c3,0.9,6.2,1.5,7.3,3.4l-2.7-4.3c1.4,0,4-1.1,5.1-0.4c2.2-1.6-5-6.1-2.1-8.2
							c-0.6-0.3-1.1-0.6-1.4-1.3c1.2-2.3,5.4-3.8,1.8-7.6l5.9-0.6c-0.8-2.6-7.4,0.9-8.7-3.4c-1.2-3.1,4.9-0.1,6.6-0.7
							c-2.5-1.9-7.7-5.4-2.7-7C339.4,565.6,338.4,566,338.7,566.9z M341.9,538c0.7,0.7,2.9,2.3,0.6,2.3
							C338.3,538.8,340.5,538.7,341.9,538z M341.5,493c1.2,0.7,0.4,1.2-1.2,1.6C340.2,494,340.4,493.4,341.5,493z M339.4,367.4
							c0.1,0,0.1,0.1,0.2,0.1C337.8,368.4,338.5,368.1,339.4,367.4z M341.6,365.2c-0.5-0.4-1-0.5-1.6-0.4c0.9,0.4,0.9,1,0.5,1.6
							C341.5,366.3,342.3,366.1,341.6,365.2z M287.9,639.3l1.1-0.3C289.9,640.3,289,639.8,287.9,639.3z"/>
						<path id="XMLID_325_" class="st2" d="M345.7,498.9c-0.7,0-1.4-0.1-2.1-0.2C344.2,499.1,344.9,499.2,345.7,498.9z"/>
						<path id="XMLID_324_" class="st2" d="M337.1,585C337.1,585,337.1,585,337.1,585c0.2,0.2,0.4,0.2,0.6,0.3L337.1,585z"/>
						<path id="XMLID_323_" class="st2" d="M365.7,411.1c-0.6,0.4-1.4,0.6-2.2,0.6C364.4,412,365.3,411.9,365.7,411.1z"/>
						<path id="XMLID_322_" class="st2" d="M337.8,350.4l0.7,1.8c0-0.8,0.9-0.9,1.5-1.2C339.1,350.8,337.8,350.9,337.8,350.4z"/>
						<path id="XMLID_321_" class="st2" d="M364.1,340.9c-0.4-0.3,0.1-0.5-0.4-0.8l-1.8-0.3C361.9,340.8,363.2,341.8,364.1,340.9z"
							/>
						<path id="XMLID_320_" class="st2" d="M350.7,351.4c3.2,0.5,2.3-0.7,2-2c0,0.1,0,0.1,0,0.2
							C348.3,348.4,349.5,349.9,350.7,351.4z"/>
						<path id="XMLID_319_" class="st2" d="M352.6,349.1c-0.1-0.4-0.1-0.8,0.1-1.1C351,347.5,352.3,348.4,352.6,349.1z"/>
						<path id="XMLID_318_" class="st2" d="M340.1,361.5c0.9-0.4-4-1.2-2.6-1.2C333.5,358.9,341.6,364.9,340.1,361.5z"/>
						<polygon id="XMLID_317_" class="st2" points="361.4,352.6 357.4,352.2 360.4,353.5 						"/>
						<path id="XMLID_316_" class="st2" d="M356.7,361l1.5-1.6c-0.7-0.1-1-0.4-1.2-0.8C356.5,359.8,355.5,360.8,356.7,361z"/>
						<path id="XMLID_315_" class="st2" d="M356.9,358.7c0.2-0.6,0.2-1.1-0.4-1.6C356.5,357.4,356.5,358.1,356.9,358.7z"/>
						<polygon id="XMLID_314_" class="st2" points="362.1,355.3 361.1,355.7 360.6,356.9 						"/>
						<path id="XMLID_313_" class="st2" d="M352,380.5l0.7,2.2c1.3,0.5,2.2,0.1,1.9-0.8C353.7,381.3,353.3,380.5,352,380.5z"/>
						<path id="XMLID_312_" class="st2" d="M364,376.7c-0.9,0.4-1.8,0.2-3.2,0.3l4.9,1L364,376.7z"/>
						<path id="XMLID_311_" class="st2" d="M363.9,382.7c1.3,0.5,3.3,3.7,3.5,1.1C366.1,383.3,365.4,381.1,363.9,382.7z"/>
						<polygon id="XMLID_310_" class="st2" points="351.7,411.5 351.7,411 343.7,409.5 						"/>
						<path id="XMLID_309_" class="st2" d="M365.5,441.9c2.4-2-4.8-1.6-2-3.2c-1.8-0.9-2.3,1.4-3.8,0.5
							C361.4,440.9,360.1,441.5,365.5,441.9z"/>
						<path id="XMLID_308_" class="st2" d="M359.7,439.1c-0.3-0.3-0.6-0.6-1.1-1C359,438.7,359.4,438.9,359.7,439.1z"/>
						<polygon id="XMLID_307_" class="st2" points="265.2,731.3 263.2,732.4 266.1,732 						"/>
						<path id="XMLID_306_" class="st2" d="M270.5,735.4l-5.2-0.7l4.4,1.8C269.6,736.1,269.3,735.4,270.5,735.4z"/>
						<path id="XMLID_305_" class="st2" d="M353,535.8l-1.2-0.4c-1.4,0-1.5,0.3-1.9,1L353,535.8z"/>
						<polygon id="XMLID_304_" class="st2" points="345.1,555.7 345.3,555.4 340.5,555.1 						"/>
						<path id="XMLID_303_" class="st2" d="M347.5,574.2c0.3-0.7-0.5-1.7-0.2-2.4C347.8,573.5,341.7,573.2,347.5,574.2z"/>
					</g>
				</g>
			</g>
		</g>
	</g>
	<g id="XMLID_5_">
		<g id="XMLID_203_">
			<g id="XMLID_207_">
				<g id="XMLID_208_">
					<g id="XMLID_209_">
						<path id="XMLID_390_" class="st2" d="M281.2,438.5c0,0.6,2.8-1.2,3.4-1.4C283.6,436.7,280.5,438.9,281.2,438.5z"/>
						<polygon id="XMLID_295_" class="st2" points="270.6,434.7 271.8,434.2 268.3,434.7 						"/>
						<path id="XMLID_294_" class="st2" d="M266.9,427.8c-4.7,3.4,2.2,2.1,1,4.3l-1,0.8l4.3-1.6C269.8,430.1,266,429.6,266.9,427.8z
							"/>
						<path id="XMLID_293_" class="st2" d="M275.8,418.2c-1.8,1.3-2.1,0.1-0.1,1.2c0.2-0.2,0.3-0.3,0.4-0.4
							C275.9,418.9,275.8,418.7,275.8,418.2z"/>
						<path id="XMLID_292_" class="st2" d="M276,419C276.6,419.7,277.4,417.6,276,419L276,419z"/>
						<path id="XMLID_291_" class="st2" d="M273.1,416.3l2.3,0c1-0.8,0.8-1.8,1.9-2C275.7,413.8,274.7,414.7,273.1,416.3z"/>
						<path id="XMLID_290_" class="st2" d="M268.9,417.3l1,0.1C270.4,417.1,270.5,416.8,268.9,417.3z"/>
						<path id="XMLID_289_" class="st2" d="M272.1,417.6l-2.1-0.2c-0.7,0.6-2.4,1.5,0.8,0.2C269.2,418.3,270.8,417.8,272.1,417.6z"
							/>
						<path id="XMLID_288_" class="st2" d="M271.6,418.6c-0.8,1.1-1.1,2.2-3.4,2.2C269.9,422.3,273.3,420.1,271.6,418.6z"/>
						<path id="XMLID_287_" class="st2" d="M261.5,430.2l-1.1,1.5l2-0.3C261.4,431.6,263,429.3,261.5,430.2z"/>
						<path id="XMLID_286_" class="st2" d="M272.5,408.9c-1.1,0.5-2.7,1.9-4,2.7l1.6,0C270.6,410.8,270.9,409.8,272.5,408.9z"/>
						<path id="XMLID_285_" class="st2" d="M268.5,411.5l-2.4-0.1C266.4,412.5,267.3,412.2,268.5,411.5z"/>
						<polygon id="XMLID_284_" class="st2" points="263.3,420.2 268.1,419.8 263,419.8 						"/>
						<polygon id="XMLID_283_" class="st2" points="270.4,404.8 273.2,404 268.9,405 						"/>
						<path id="XMLID_282_" class="st2" d="M268.6,402.3c2.3-0.7,3.1-2.5,4.7-2.7c-0.8-0.5-2.9-0.2-4.7,0.1
							C269.7,399.8,269.8,400.6,268.6,402.3z"/>
						<path id="XMLID_281_" class="st2" d="M265.7,400c0.7,0,1.7-0.1,2.8-0.3C267.8,399.6,267,399.7,265.7,400z"/>
						<path id="XMLID_280_" class="st2" d="M265.6,409.4c0.6-0.4,2.2-1.5,2.6-2.5l-2.8,2C265.5,409.1,265.6,409.2,265.6,409.4z"/>
						<path id="XMLID_279_" class="st2" d="M265.4,409L265.4,409c-0.1-0.6-0.2-0.9-0.2-1.1C265.2,408.1,265.2,408.4,265.4,409z"/>
						<path id="XMLID_278_" class="st2" d="M265.7,409.5c0,0,0-0.1,0-0.1C265.4,409.6,265.3,409.7,265.7,409.5z"/>
						<path id="XMLID_277_" class="st2" d="M264.5,415.9c-2,0.3-4.5,0-6.4,2.6C260.4,417.8,261.5,416.3,264.5,415.9z"/>
						<path id="XMLID_276_" class="st2" d="M262.2,412l-0.1,1.5c0.8-0.4,1.8-1.3,2.8-1.4L262.2,412z"/>
						<polygon id="XMLID_275_" class="st2" points="260.9,412 262.2,412 262.2,411.5 						"/>
						<path id="XMLID_274_" class="st2" d="M263.9,403.4c-1.6,0.2-2-0.3-2.5-0.7c-0.2,1-0.2,1.8,0.1,2.4
							C262.5,404.7,264.4,404.1,263.9,403.4z"/>
						<path id="XMLID_273_" class="st2" d="M264.3,406.3c-0.1,0-0.1,0-0.2,0C263.9,406.5,263.8,406.6,264.3,406.3z"/>
						<path id="XMLID_272_" class="st2" d="M258.2,396.8c-0.1,0.1-0.3,0.3-0.5,0.4c0.2-0.1,0.4-0.2,0.5-0.3L258.2,396.8z"/>
						<path id="XMLID_271_" class="st2" d="M261,405.5c-0.3,0.8,0.6,0.7,1.6,0.5c-0.5-0.2-0.9-0.5-1.1-0.9
							C261.1,405.3,260.8,405.5,261,405.5z"/>
						<path id="XMLID_270_" class="st2" d="M263.4,399.1c-0.5,0.6-0.9,1.2-1.2,1.7C263,400.1,264.2,398.8,263.4,399.1z"/>
						<path id="XMLID_269_" class="st2" d="M264.9,405.7c0.1,0,0.1,0,0.2,0C265.6,405.2,265.3,405.3,264.9,405.7z"/>
						<path id="XMLID_268_" class="st2" d="M264.9,405.7c-0.6,0-1.4,0.2-2.2,0.3c0.4,0.2,0.9,0.3,1.4,0.3
							C264.3,406.1,264.6,405.9,264.9,405.7z"/>
						<path id="XMLID_267_" class="st2" d="M237.9,405.4c2.8-1.4,6.1-1.5,3.7,1.2c2.7,0,11.5-5.7,16.1-9.4c-1.2,0.6-2.4,1.2-4.6,1
							c-1.3,1.2-2.2,4.4-5.3,4.8c-2.2-0.7,0.3-1.7,1.4-3.3c-3.1,2.5-6.1,0.8-11,3.9l2.5,0.3C240,404.4,238.5,404.6,237.9,405.4z"/>
						<path id="XMLID_266_" class="st2" d="M258.6,399.4l0.6,0.3c0.2-0.8,1.1-1.8,2.9-3.6c-1.8,0-2.9,0.4-3.8,0.8l0.8,2.5
							L258.6,399.4z"/>
						<path id="XMLID_265_" class="st2" d="M260.3,401.8c-3.2,1.3-5.1,0.9-8,3.3c0.9,1.2,3-0.4,4.8-0.3c-1.9-1.8,2-0.3,2.9-2.8
							c0.7,0.1,1.1,0.4,1.4,0.7c0.2-0.6,0.4-1.2,0.8-1.9c-0.1,0.1-0.1,0.1-0.2,0.2l0,0c0,0,0,0,0,0c-0.3,0.3-0.5,0.5-0.4,0.2
							c0,0-0.1,0-0.1,0C261.1,401.4,260.7,401.6,260.3,401.8c0.3-1,0.8-0.5,1.2-0.5c0.2-0.1,0.3-0.1,0.5-0.2c0,0,0,0,0,0l-2.8-1.3
							C259,400.4,259.4,400.9,260.3,401.8z"/>
						<path id="XMLID_264_" class="st2" d="M250.9,420.9c0.2-0.2,0.4-0.3,0.7-0.4C251.2,420.5,250.9,420.6,250.9,420.9z"/>
						<path id="XMLID_263_" class="st2" d="M252.3,419c0.5-0.1,1.8-0.6,1.8,0.1c-0.7,0.9-1.5,0.8-2.4,1.3c1-0.1,2.8-0.1,3.7-1.9
							l-0.5,0.1c0.6-1.4,3.8-4.6,4.3-4.7C256.5,415.7,254.7,417,252.3,419z"/>
						<path id="XMLID_262_" class="st2" d="M255.5,410.7l-2.5-1l-2.1,2.3l1.6-0.9C252.4,412.5,254.2,411.3,255.5,410.7z"/>
						<polygon id="XMLID_261_" class="st2" points="259.6,395.8 263,394.3 257.9,395.7 						"/>
						<polygon id="XMLID_260_" class="st2" points="258,393.6 260.8,392.2 258.8,392.5 						"/>
						<path id="XMLID_259_" class="st2" d="M152,279.6l-1.1-0.1C151.3,279.6,151.6,279.6,152,279.6z"/>
						<path id="XMLID_258_" class="st2" d="M153.8,283.6l1.4-0.6C154.4,283.1,153.8,283.4,153.8,283.6z"/>
						<path id="XMLID_257_" class="st2" d="M226.6,336.1c2.2-2.2,5.8-5.2,2.7-3.4l-2.9,1.9C227.2,334.8,227,335.4,226.6,336.1z"/>
						<path id="XMLID_256_" class="st2" d="M187,306.4c-0.3,0.2-0.5,0.5-0.8,0.7c1.1-0.4,2.2-0.7,3.2-1.1
							C188.7,306.1,187.9,306.2,187,306.4z"/>
						<path id="XMLID_255_" class="st2" d="M174.1,312.6l1.4-2.1C175,311.1,174.5,311.8,174.1,312.6z"/>
						<path id="XMLID_254_" class="st2" d="M137.4,260.3l-3.4,1.1C134.5,262.4,135.8,261.1,137.4,260.3z"/>
						<path id="XMLID_253_" class="st2" d="M243.9,370.1c0.8-1.3,1-2.1,0.9-2.7C243.5,369.2,241.2,371.3,243.9,370.1z"/>
						<path id="XMLID_252_" class="st2" d="M185.2,263.7c-0.7,0-1.4,0.2-2.1,0.5C183.8,264.3,184.5,264.1,185.2,263.7z"/>
						<path id="XMLID_251_" class="st2" d="M243.8,365.6c-0.2,0.3-0.3,0.5-0.5,0.7c0.8,0.2,1.5,0.5,1.6,1.2
							C245.8,366.2,246.3,365.1,243.8,365.6z"/>
						<path id="XMLID_250_" class="st2" d="M98.9,182.8c0.1-0.1,0.1-0.2,0.3-0.4C98.8,182.6,98.8,182.7,98.9,182.8z"/>
						<path id="XMLID_249_" class="st2" d="M117.8,144c0.3,0.1,0.5,0.5,0.7,0.8C118.6,144.5,118.5,144.2,117.8,144z"/>
						<path id="XMLID_248_" class="st2" d="M254.2,383.4C254.7,383.8,254.6,383.3,254.2,383.4L254.2,383.4z"/>
						<path id="XMLID_247_" class="st2" d="M243.4,392.4c-0.4,0.1-0.9,0.2-1.6,0.6C242.6,392.6,243.1,392.4,243.4,392.4z"/>
						<path id="XMLID_246_" class="st2" d="M222.1,370.8C222.1,370.8,222.1,370.8,222.1,370.8C221.6,371.3,221.7,371.2,222.1,370.8z
							"/>
						<path id="XMLID_245_" class="st2" d="M253.2,384.9c0.3-0.4,0.5-0.8,0.6-1.1C253.6,384,253.4,384.4,253.2,384.9z"/>
						<path id="XMLID_244_" class="st2" d="M254.6,384.1c0,0.2,0,0.4-0.1,0.6C255.1,384.4,255.4,384.2,254.6,384.1z"/>
						<path id="XMLID_243_" class="st2" d="M253.7,382.8c0.2,0.3,0.2,0.6,0.1,1c0.2-0.2,0.3-0.3,0.4-0.4
							C254.1,383.3,253.9,383.1,253.7,382.8z"/>
						<path id="XMLID_242_" class="st2" d="M129.1,219.2c0.1-0.1,0.1-0.2,0.2-0.3C127.8,219.1,128.1,219.2,129.1,219.2z"/>
						<path id="XMLID_241_" class="st2" d="M187.9,340.2c0,0,0.1,0,0.2,0c0,0,0-0.1,0.1-0.1L187.9,340.2z"/>
						<path id="XMLID_240_" class="st2" d="M184.6,339.6c4.2-1.3,4-0.6,3.5,0.4l8.5-5.3L184.6,339.6z"/>
						<path id="XMLID_233_" class="st2" d="M146.1,270.9l-2.1,2.7c-5.3,0.9-4.4-1-7.6,2.2c9.7-5,3.6,4.4,13.3-0.6l-1.6,1.9
							c0-0.3-0.6,0-0.6-0.3c-3.7,4.1,7.6-2.5,7.3,0.3c-0.3,1.1-1.5,2.4-2.9,2.5l3.2,0.3c0.1,0.6-1.7,1.3-1.7,0.8l2.1,2l-0.3,0.1
							c1.7-0.5,4.4-0.9,5.6-1.1c-1,1.4-1.2,0.2-2.3,1l3.1,0.1c-2.2,1.9-5.2,2.1-5.3,0.9c-8.9,6.4,3-0.2-1.1,5.6l-1.9-0.6
							c-5,3.8-2.5,3.7-5.1,7c1.6-1.3,7-7.5,10.1-7.3c-0.5,0.8-0.5,1.5,1.8,1.3c-3.4,1.8-2.1,2.2-1.4,3l-4.5,2.4
							c1.9,0.4,4.1-1,6.5-1.4c0.2,1.4-3.2,3.5-6,5.4c0.3,2.3,4.9-4.3,6.9-2.5c-0.9,2.5,1.6,2.6,5.3,3c-1,1.9-2.9,1.3-3.9,2.4l4.1-1
							c0,0.3-1.1,0.8-1.7,1.1c1.8,0.1,4.5-2.4,6.5-1.7c5.1-2.3-5.8,6.5,0.7,5.1c-1.1,1.1-2.9,1.3-4.5,2.4c4.9,0.2,3.7,0.4,9.6-0.5
							l-2.1,3.1c2.8-2.9,7.6-3.7,11.5-4.2c1.4-1.3,2.7-2.4,3.2-3l3.5,0.7c-0.6,0.6-2.3,1.3-4.3,2c0.4-0.1,0.9-0.1,1.3-0.2
							c-1.3,1.6-4.1,2.6-6.9,3.5c0.8-0.7,1.6-1.5,2.4-2.2c-3,1-6.3,2.1-8.9,3.7c0.6-0.1,1.2-0.1,1.6,0c-0.8,0.3-1.5,0.5-1.9,0.8
							c-0.4,0.3,0.7,0,2-0.3l-4.8,3.2l2.1-1l-1.7,4.3c6.1-0.8,14.4-3.2,18.1-1.4c-4.1,1.2-6.1,3.1-10.5,5.4c4.2-3.3-3.2-1.2-3.1-3.3
							c-0.1,1.1-2.2,2-3.1,2.2l5.7,0.5c-3.6,1.9-2.4,2-3.5,3.5c6.8-4.3,5.8-0.5,8.6-0.5c-2.3,1.3-4.9,2.4-5.1,0.7
							c-4.5,4.4,9.3-2.5,5.6,1.4c-0.2-0.3,0-0.7-1.2-0.2c2.5-0.4,1.9,2.4-0.4,3.1l-0.2-0.3c0.4,2.7,3.6,6.8,9.7,3.9
							c-0.8,0.4-7.4,3.6-8.7,4.1l22.3-6.9c-5.3,2.4-16.9,10.4-20.8,10.1c-0.4,0.9-1,2,1.5,2.2c0.5-0.8,7-4.9,7.7-4.7
							c-5,4.4-2.6,2.6-6.5,6.9c0.8-1.1,9.2-4.9,9.4-3.9c-1.3,0.5-7.9,4.4-8.9,4.5l9.1-2.1c-1.7,0.2-6.8,3.5-8.7,5.2
							c1.4-1.1,0.8,1.9,1.9,2.1l1.4-1.9c0.1,3,12.4-3.6,13.3-1c-1.8,0.6-10.5,4.7-10.8,6.5c4.4-1.6,20.8-8.1,25.1-7.6l-2.1,1.7
							l3.5,0.2c-6.6,2.3-21,6.4-26.8,7.5c-1.4,1.9-2.6,1.7-1.7,3c-1.9,1.6-3.7,1-4,0.7l0.3,3.9c4.7-2.7,6-0.2,9.9-2.4l-6.7-0.7
							c4.7-2.7,14.5-5.3,14.9-2.6c-1.6,1.6-8.7,4.1-10.2,5c1.8-0.6,4.2,0.4,3.2,1.2l-3,0.4c-1.1,2.2,7.4-1.4,3.6,2.5
							c0,0.7-5.3,4.8-2.4,3.4c5-3.7,21.6-12.9,25.9-14.5c-0.3,0.4-3.7,5.5-6.1,7.5c-3.8,3.1-10.8,4.2-14,6.8
							c1.3-0.7,3.2-1.1,3.8-1.1c-0.8,1.1-4.1,1.9-2.9,2.8c4.9-2.4,0.9,2.6,4.4-1.6c2,0.4-0.3,1.7,0.6,3c2.9-2.1,11.2-4.5,13.2-4.1
							c-1.3,0.6-2.7,1.7-3.4,2.2c0.8,2.6-0.7,5,0.5,7.2c-1.1,0.8-1.9,2.6-4.2,3.3c1-0.1,2.8-0.7,3.3-0.1c-3.5,3.5-1.5-1.2-5.9,2.5
							c2.8-1.4,4.8-0.3,7-0.3c4.2-2.6-0.4-2.7-2.6-2.7c5.9-3.2,13.1-4.9,17-4.1c2.5,1-3.4,2.9-2.4,2.7c0.8,4,11.9-2.7,9.2,2.4
							c-3.2,3.2-7.5,4.1-10.1,5.8c-2.2-0.7,1.2-3.6,0.5-4.5l-1.1,2.2c-1.5,0.2-3-0.3-2.2-1.4c-2.9,2.8,2.4,6.1,0.7,10.4
							c1.5-0.2,3.3-0.1,4.6-1.3l-1-0.5c2.6-2.4,5.1-0.7,5.9-2.5c2.7,0,6.8-0.6,5.9,1.9l-4.2,2.6c1.2-0.7,2-2.4,0.5-2.1
							c2.3-0.4-4.5,5.6,1.5,3.2l2.4-2.7c2.8-0.1,8.1-1.1,7.5,1c3.9-2.9-0.7-0.1,3.8-3.7c-5.7,4.2-1.7-3.7-7.4,1.2
							c5.2-4.1,1.5-3.1,5.7-7.1c-1.4,0.8-2.5,1.9-2.4,0.4c-0.4,0.2-1,0.3-1.4,0.4c0-0.1,0-0.1,0.1-0.1c0,0.1-0.1,0.1-0.1,0.2
							c-0.2,0.1-0.3,0.1,0,0.1c-0.5,0.6-1.1,1.2-1.8,1.8c-3.6,1.2-4.5-0.7-6.5-0.4c0.3-1.1,1.8-0.6,3.1-1.8l-3,0.4
							c3.1-1.8,4.3-4.7,7-4l-0.6-1.5c1.3-1.8,1.4-3.4-0.4-3.4c0.3-1.1-4.4,0.1-1.6-0.6l-3.2-1.2l0.8-0.4c-0.8-2.5-7.8-1.9-3.4-7.5
							c-1.2-0.3-2.6-0.6-2.4-2.4l2.6-1.7c-1.5-0.5,1.2-4.4-1.9-3.3c6.8-5-1-5.6-0.6-8.1l-3.6,1.9c-0.4-1.3-2.1-1.9-4.3-2.6l-3.1,1.8
							c-3.3,0.1,0.5-4.5-0.9-6.3c1.3-0.5,1.2,0.2,0.7,0.9c5.8-6.2-7.9-2.3-3.9-7.3c-1.4,0.1-1.3-0.5-0.7-1.3c0,0,0.1,0.1,0.2,0
							c0-0.1,0-0.2-0.1-0.2c0.4-0.5,0.9-1.1,1.3-1.7c-0.6,0.6-1.2,1.2-1.4,1.5c-0.3-0.4-1-0.8-2.2-1l3.2-2.1c-0.1,0-0.1-0.1-0.2-0.1
							c0.9-1.3-1.9,0.4-4.2,2.1c-0.7,0-1.6,0.1-2.5,0.3c5.2-3.4-2.7-0.6,2.8-4.5c-3.1,1.1-3.8-2-10,0.9c0.8-0.4,1-0.8,1.3-0.5
							c0.3-1.1,0.6-2.1-1.4-1.8l4.2-2.6l-6.6,1.6c2.1-2.3,3.5-3.5,7.3-4.4c-6.3,0.5-2.9-0.8-9,0.1l2.8-1.4c-0.5-0.6-4.8,0.3-2.7-1.3
							c4.5-4.4-3.3-7.8-0.4-14.3c-7.8,5.2,2.7-3.8-3.7-0.5c1.8-1.3,2.6-2.4,4.7-2.7c-3-0.9,1.5-4.6-4.6-3.1c1.8-1.3,3.1-1.1,4.1-1.9
							c-0.5,0.1-2,0.3-1-0.5c1-0.8,1.8-0.6,2.8-0.7c-1.4-1.8-7.5,1.2-13.2,4.1c2.1-2.5,1.5-2.8-2.6-1.5c1.6-1.3,3.2-3,4.6-2.1
							c-0.1-0.8,0.4-5.7-4.2-3.4c1-0.8-0.2-1.2-0.8-1.1c-0.6-1.7-0.2-2.1-1.5-3.4l-0.5,0.8c-5.8,2.3-1.9-0.6-3.2-1.5l0.6-0.3
							c2.4-5-2.5-0.2,0.4-5.5l-3.3,2c-7.4,3.6,2.9-4.8-0.7-5l-1.6,1.6c-3,0.4,8.5-7.8,9-9.2c0.5-0.5,1.2-0.2,1.8-0.2
							c3-4.7-4.6,2.1-6.6,0.9c2.2-1.6,6.3-2.9,6.1-4.3c1.6-1.6-9.6,0.8-5.9-3.3c-1.6,1.3-3.3,2.7-5.1,2.6c-1.3-0.9,5.1-7.1-1.3-5.1
							c0.4-0.4,0.9-0.7,1.3-1c-2-0.1-4.2-1.8-7.6-0.6c11.2-7.2-8.9-2.9,1.9-8.6l-2.2-2.6l1.1-0.5c-0.3-2.3-3.2-1.5-6.2-0.8
							c0.5-0.8,1.7-1.1,2.3-1.3c0.7-3.9,0.1-3.9-6.5-3.3l3.4-2.1c-2.4,0.5,3.3-6.9-2.2-7.4c0.4-0.2,1.1-0.5,1.7-0.5
							c-5.7-0.8,5.8-12.5-7.5-6.7l-4.2-0.3c0.4,3.1-5.7,2.6-7.3,4.8c-1.3-0.6,2.4-4.7,3.7-3.8l-0.5,0.5c6.9-3.1,0.6-4.5,5.2-6.8
							c-3.1-4.9-2.1-11.8-4.3-16.7l-4.9,3.3l-0.6-1.8c1-1.1,3.7-2.8,4.1-1.5c2.6-2.2-3.5-0.7-4.7-0.1c0.8-3.4,6.5-2.3,6.2-3.1
							l-0.9-0.8l-0.5,0.5c-2.5,0.4-4.8,1.5-5.3-0.1c0.5-1.5,2.9-2.2,2.9-2.6c0.4-0.2,0.5-0.4-0.1-0.6l-0.7-2.3l-3.6,3
							c-2.5,0.2-0.8-2.1-4.9,1.4c6.3-5.2-1.6-9.2,0.1-11.2c-3.7,0.3-4.3-1-4.8-2.8c-0.6,0.9-5.1,3.5-5.3,1.9
							c9.7-4.6,2.7-4.7,8.9-9.5c-4,3.4-3.2-3.3-8.8,1.7c0.1-1.6,3.5-2,5.2-4c-5.1-0.8-0.9-7.3-3.9-10c-1.3,0.6-2.9,2.2-5.1,2.5
							l5.2-5.1c-1-0.3-7.5,3.2-3.8-0.3c-1,0.7-2.4,1.8-3,1.6c2.5-9.8-12.2-10.8-4.4-23.6c-1.9,2.2-2.5,1.7-2.9,1.1
							c-0.3,0.8-3.1,1.6-4.7,2.6l3.2-5.3c-4.9,2-1.9-2.8-6.5-0.7l1.3,0.5c-5.9,1.7-10.8,7.9-17.6,11.4c6.7-1.9-7,8.2,2.7,5.8
							c-1.1,1.2-2.4,0.8-3.8,1.9c3.2-1,4.1-0.7,3.5,1.3l-0.8,0.2c2.6,3.1,0.5,6.1,0.7,11l3.2-2.1c0,1.1-0.9,1.8-1.6,2.7
							c5.6-1.8-1-2.5,5.1-4.6c-6.2,4.8,3.1,5.9-4.3,10.8c0.6,1.3,3.7-2.5,4.3-1.1l-1.9,1.5l2.9-1.1c0,1.1-2.4,2.9-4.1,3.9
							c0.1-0.3-0.8-0.3-1.1-0.5c-1.9,2.4,2.5,2.6,1.9,3.4l0.6-1.9c3.8,2.4,3.4,8.2,9.5,9.3l1.4-1.1c4.3,1-0.6,3,2.3,5.1l-0.4,0.1
							c1.9-0.3,3.1,0.1,3.3,0.9c-2.2,0.3-2.9,3.3-5.4,3.4c4.6,1.1,3.2,0.1,10-1.2l-2.4,1.8c2.7-0.6,4-1.3,5.4-0.2
							c-2.9,0-3.5,3-7.2,3.3c-4.1,6,8.1,1.3,0.5,7.2c8-2.5,2.6-4.7,4.6-4.8c2-1.9,6-1.8,5.8-0.5c0.3,1-8.4,6.6-7,8.9
							c-0.1-0.3-0.6,0-0.7-0.2c-1.4,1.9,3.4,0.4,1,3.1c4.7-1.7,0.5,1.6,6.2-1.3l-2.5-1.5c2.1,0.5,9.3-1.9,7.2,1.9
							c-1.2,0.4-3,0.6-4.1,0.7c-1.3,1.5,1.7,0.6,0.4,2.1c-5.7,2.8-2.6-2-7.6-1c-2,1.9,5.4,0.3-1,2.9c8.2-3.2,0.3,2.9,7,1.3l-3.4,1.7
							c0.7,0,2.5-0.3,2.7,0.2l-4.8,1.5c4.4-0.7-1.9,4.3,0.8,4.4c-1.5-2.6,3.7-2.8,5.6-5.2c6.2,0.8-7.7,6.6-4.2,9.3
							c-0.7-0.2,1-2.9,3-3c-0.3,1.1-1.1,2.7-2.6,4c2,2,3.2-2.2,5.8-2.3c-3.6,3,2.3,0.3,4.2,0.6l-3.4,1.8c-0.7,3.9,7.5-3.1,6.2,0.8
							l-5.3,1.5l1.9,0.6l-4,1.8c3.6-0.1,3.1,0.7,2.8,2.6c2.2-1.6,6.3-3.1,7-2c-1.6,1.9-3.5,1.3-2.1,2.7c-2.3,0.8-5.2,1.8-2.5-0.7
							c-1.1,0.5-2.3,0.8-3.5,1.3c-1.8,2.1,0.7,2.5,1,3.1c0-0.3,0-0.7,0.4-1.1l6.1,0c-1.1,1.1-2.3,1.3-3.4,1.6
							c0.6,0.3,2.4-0.2,3.1,0.4c-2.9,1.3-5.7,2.9-7.6,2.5l4.3,0.7c-1.1,0.8-2.6,3-3.8,3.2c-0.9,2.2,7.1,0.3,5.9,3.2
							c0.6-0.2,1.2-0.3,1.8-0.1c0.3,2-2.3,5.3,2.5,5.2l-4.4,3.8c1.9,0.9,5.4-4.9,8.7-3.3c2.5,0.9-3.9,2.9-4.9,4.3
							c3-0.5,8.9-1.6,5.8,2.2C146.3,272,146.8,271.2,146.1,270.9z M158.4,288.5c-0.9,0-3.5,0.5-1.6-0.9
							C160.9,285.9,159.2,287.3,158.4,288.5z M182,312.6c-1.3,0.3-0.9-0.4,0.1-1.5C182.6,311.3,182.6,311.7,182,312.6z M248.5,379.5
							c-0.1,0-0.1,0-0.2,0C249.2,378,248.8,378.6,248.5,379.5z M247.9,381.9c0.6-0.1,1-0.4,1.5-0.7c-0.9,0.3-1.2,0-1.2-0.6
							C247.4,381.3,246.9,381.9,247.9,381.9z M149.1,201.6l-0.7,0.8C147,202.2,148,201.9,149.1,201.6z"/>
						<path id="XMLID_232_" class="st2" d="M175.6,311.9c0.5-0.4,1.1-0.8,1.8-1.2C176.7,310.9,176.1,311.3,175.6,311.9z"/>
						<path id="XMLID_231_" class="st2" d="M138,260.1C138.1,260.1,138,260.1,138,260.1c-0.2,0-0.4,0.1-0.6,0.2L138,260.1z"/>
						<path id="XMLID_230_" class="st2" d="M205.1,371.3c0.3-0.6,0.8-1.1,1.4-1.6C205.6,370.2,205,370.7,205.1,371.3z"/>
						<path id="XMLID_229_" class="st2" d="M258.5,387.8l-1.5-0.6c0.4,0.4-0.2,1-0.6,1.6C257.2,388.3,258.3,387.5,258.5,387.8z"/>
						<path id="XMLID_228_" class="st2" d="M242.5,408.5c0.5-0.1,0.2,0.3,0.7,0.2l1.6-0.9C244.4,407.2,242.8,407.4,242.5,408.5z"/>
						<path id="XMLID_227_" class="st2" d="M247.8,394.9c-2.8,1.6-1.5,1.8-0.5,2.3c0,0-0.1-0.1-0.1-0.1
							C251.3,395,249.5,394.9,247.8,394.9z"/>
						<path id="XMLID_226_" class="st2" d="M247.4,397.2c0.3,0.2,0.5,0.4,0.4,0.7C249.5,397.1,248.1,397.4,247.4,397.2z"/>
						<path id="XMLID_225_" class="st2" d="M251,383.1c-0.5,0.8,3.8-1.7,2.7-0.9C257.6,380.6,248,382.1,251,383.1z"/>
						<polygon id="XMLID_224_" class="st2" points="238.7,400.5 242.1,398.4 239,399.5 						"/>
						<path id="XMLID_223_" class="st2" d="M238.1,393.2l-0.3,1.7c0.6-0.3,1-0.4,1.4-0.3C238.8,393.8,239.1,392.6,238.1,393.2z"/>
						<path id="XMLID_222_" class="st2" d="M239.1,394.6c0.1,0.4,0.4,0.8,1.1,0.7C240.1,395,239.7,394.7,239.1,394.6z"/>
						<polygon id="XMLID_221_" class="st2" points="236.7,399.5 237.3,398.7 237.1,397.7 						"/>
						<path id="XMLID_220_" class="st2" d="M231.7,379.8L230,379c-1.3,0.5-1.8,1.3-1.1,1.5C229.9,380.4,230.7,380.6,231.7,379.8z"/>
						<path id="XMLID_219_" class="st2" d="M224.2,389c0.5-0.8,1.3-1.2,2.4-2l-4.4,2.3L224.2,389z"/>
						<path id="XMLID_218_" class="st2" d="M221.1,385.7c-1.3,0.5-4.5,0-3.3,1.5C219.1,386.7,220.8,387.4,221.1,385.7z"/>
						<polygon id="XMLID_217_" class="st2" points="216,362.8 216.2,363.1 223.3,359.2 						"/>
						<path id="XMLID_216_" class="st2" d="M189.4,354.6c-0.9,2.5,4.6-2,3.2,0.6c1.9-0.5,1.1-2.1,2.8-2.5
							C193.1,352.6,193.8,351.6,189.4,354.6z"/>
						<path id="XMLID_215_" class="st2" d="M195.4,352.6c0.4,0,0.8,0,1.3-0.1C196.2,352.5,195.7,352.5,195.4,352.6z"/>
						<polygon id="XMLID_214_" class="st2" points="119.7,138.2 120.6,136.4 118.6,138.3 						"/>
						<path id="XMLID_213_" class="st2" d="M113.3,139.1l4.4-2.7l-4.5,1.6C113.6,138.2,114.2,138.4,113.3,139.1z"/>
						<path id="XMLID_212_" class="st2" d="M150.7,296.2l1.1-0.5c1.1-0.8,1.1-1.1,1-1.7L150.7,296.2z"/>
						<polygon id="XMLID_211_" class="st2" points="146.8,280.8 146.8,281 150.7,278.4 						"/>
						<path id="XMLID_210_" class="st2" d="M135.4,272.1c0.1,0.6,1.3,0.6,1.4,1.2C135.5,272.7,140.5,269.2,135.4,272.1z"/>
					</g>
				</g>
			</g>
		</g>
	</g>
	<g id="XMLID_2_">
		<g id="XMLID_109_">
			<g id="XMLID_113_">
				<g id="XMLID_114_">
					<g id="XMLID_115_">
						<path id="XMLID_202_" class="st2" d="M228.4,358.6c-0.4-1.5-3.2,0.4-3.8,0.5C226.3,361,229.2,358.2,228.4,358.6z"/>
						<polygon id="XMLID_201_" class="st2" points="245.7,377.6 244.3,377.8 248.9,379.6 						"/>
						<path id="XMLID_200_" class="st2" d="M255.4,398.4c4.2-4.4-4.4-7.1-4.3-11.7l0.9-1.2l-4.9,0.3
							C249.9,390,255.4,394.5,255.4,398.4z"/>
						<path id="XMLID_199_" class="st2" d="M249.5,414.7c1.7-1.6,2.9,1.6-0.6-2.9c-0.1,0.4-0.2,0.5-0.3,0.7
							C248.8,413,249.1,413.6,249.5,414.7z"/>
						<path id="XMLID_198_" class="st2" d="M248.6,412.5C247.4,410.4,247.6,414.8,248.6,412.5L248.6,412.5z"/>
						<path id="XMLID_197_" class="st2" d="M254.5,422.1l-3.1-2c-0.9,1.2,0,3.9-1.3,3.3C252.4,425.8,253.3,424.7,254.5,422.1z"/>
						<path id="XMLID_196_" class="st2" d="M259.5,423.1l-1.5-1.1C257.7,422.4,257.7,422.9,259.5,423.1z"/>
						<path id="XMLID_195_" class="st2" d="M255,419.5l3.1,2.4c0.6-0.8,2.3-1.6-1.3-1.2C258.5,420.3,256.7,420.3,255,419.5z"/>
						<path id="XMLID_194_" class="st2" d="M254.9,417.3c0.4-2.1,0.1-4.6,3.2-2.5C254.9,409.6,251.6,412.2,254.9,417.3z"/>
						<path id="XMLID_193_" class="st2" d="M261.3,396.9l0.5-2.9l-2.6-1.1C260.5,393.5,259.7,397.8,261.3,396.9z"/>
						<path id="XMLID_192_" class="st2" d="M260.2,441.3c1.2-0.3,2.5-2.3,3.8-3.2l-2.3-1.5C261.5,438,261.8,440.4,260.2,441.3z"/>
						<path id="XMLID_191_" class="st2" d="M264,438.1l3.4,2.3C266.3,437.4,265.1,437.3,264,438.1z"/>
						<polygon id="XMLID_190_" class="st2" points="265.5,420.9 259.1,417.5 266,421.9 						"/>
						<polygon id="XMLID_189_" class="st2" points="265.8,453.5 262.4,452.9 267.8,454.3 						"/>
						<path id="XMLID_188_" class="st2" d="M270,461.4c-2.7-0.3-2.7,3.5-4.7,2.7c1.4,2,4.1,3,6.5,4
							C270.1,466.7,269.5,464.7,270,461.4z"/>
						<path id="XMLID_187_" class="st2" d="M275.6,469.8c-0.9-0.7-2.3-1.2-3.7-1.7C272.8,468.8,273.9,469.4,275.6,469.8z"/>
						<path id="XMLID_186_" class="st2" d="M269.4,446.1c-0.5,0.6-2.1,1.8-2,4l2.5-2.7C269.8,446.9,269.6,446.5,269.4,446.1z"/>
						<path id="XMLID_185_" class="st2" d="M270,447.2L270,447.2c0.5,1.5,0.9,2.5,1,2.9C270.9,449.8,270.6,448.9,270,447.2z"/>
						<path id="XMLID_184_" class="st2" d="M269.3,445.7c0,0.1,0.1,0.2,0.1,0.3C269.6,445.8,269.7,445.7,269.3,445.7z"/>
						<path id="XMLID_183_" class="st2" d="M266.6,430.5c2.6,1.1,6.3,4.1,7.2-0.9C271,429.3,270.6,432.1,266.6,430.5z"/>
						<path id="XMLID_182_" class="st2" d="M272.4,442.4l-0.9-3.7c-0.8,0.4-1.7,1.6-3,1.1L272.4,442.4z"/>
						<polygon id="XMLID_181_" class="st2" points="274.2,443.6 272.4,442.4 272.7,443.7 						"/>
						<path id="XMLID_180_" class="st2" d="M275.7,462.6c2,0.8,2.9,2.4,4,4.1c-0.3-2.2-0.9-4.4-1.8-6.3
							C276.8,460.6,274.7,460.6,275.7,462.6z"/>
						<path id="XMLID_179_" class="st2" d="M273.2,455c0.1,0.1,0.2,0.2,0.3,0.2C273.7,454.9,273.7,454.7,273.2,455z"/>
						<path id="XMLID_178_" class="st2" d="M288,484.5c0.1-0.2,0.3-0.4,0.4-0.5c-0.2,0.1-0.3,0.1-0.6,0.2L288,484.5z"/>
						<path id="XMLID_177_" class="st2" d="M278.3,459.8c-0.1-1.7-1.2-2.2-2.6-2.6c0.8,0.9,1.6,2,2.2,3.2
							C278.4,460.3,278.7,460.2,278.3,459.8z"/>
						<path id="XMLID_176_" class="st2" d="M279.3,474c0.3-1.1,0.4-2.2,0.5-3.3C279.2,471.9,278.4,474.2,279.3,474z"/>
						<path id="XMLID_175_" class="st2" d="M272.9,456.1c-0.1,0-0.2-0.1-0.2-0.2C272.3,456.8,272.5,456.6,272.9,456.1z"/>
						<path id="XMLID_174_" class="st2" d="M272.9,456.1c0.8,0.5,1.8,0.8,2.8,1c-0.7-0.8-1.4-1.4-2.2-1.9
							C273.4,455.5,273.2,455.9,272.9,456.1z"/>
						<path id="XMLID_173_" class="st2" d="M310.4,480.5c-3,1.1-7.4-1.5-5.9-6.2c-3.7-2.2-12.1,4.3-16.1,9.6c1.3-0.5,2.5-1,5.7,1.5
							c1-1.9,0.2-9.1,4.1-7.5c3.6,3.7,0.7,4.1,0.2,7c2.7-3.5,7.8,3.2,12.6-0.2l-3.7-3C308.2,481.2,310.2,482,310.4,480.5z"/>
						<path id="XMLID_172_" class="st2" d="M285.8,477.4l-1-1.2c0.2,1.8-0.4,3.5-1.7,6.6c2.5,1.6,3.8,1.6,4.8,1.3l-2.8-7
							L285.8,477.4z"/>
						<path id="XMLID_171_" class="st2" d="M281.8,470c3.6-0.4,6.5,2.3,8.9-1.3c-2.1-3.9-3.9-1.6-6.4-3.4c3.8,6.2-2.6-1.1-2.2,4.5
							c-1.1-1-1.8-2.1-2.5-3.1c0.2,1.4,0.2,2.7,0.2,4c0-0.1,0.1-0.2,0.1-0.2l0,0c0,0,0,0,0.1,0c0.3-0.5,0.5-0.7,0.4-0.2
							c0,0,0.1,0.1,0.1,0.1C281,470.1,281.4,470.1,281.8,470c0.2,2.2-0.7,0.7-1.3,0.3c-0.2,0-0.3,0.1-0.5,0.1c0,0,0,0,0,0l4.8,5.7
							C284.5,474.6,283.6,472.9,281.8,470z"/>
						<path id="XMLID_170_" class="st2" d="M282.1,429.9c-0.2,0.3-0.4,0.4-0.6,0.5C282.1,430.7,282.4,430.8,282.1,429.9z"/>
						<path id="XMLID_169_" class="st2" d="M281.5,433.5c-0.7-0.3-2.1-0.1-2.5-1.8c0.3-1.8,1.5-0.7,2.5-1.2
							c-1.3-0.5-3.8-2.2-3.9,1.4l0.6,0.3c0.2,3.1-2.1,8.3-2.8,8.1C277.9,438.2,279.6,436.6,281.5,433.5z"/>
						<path id="XMLID_168_" class="st2" d="M282.6,451.6l4.1,4.7l1.4-4l-1.6,0.9C285.7,449.8,284,451.4,282.6,451.6z"/>
						<polygon id="XMLID_167_" class="st2" points="286.8,485.8 283.1,486.7 289.3,487.6 						"/>
						<polygon id="XMLID_166_" class="st2" points="290.5,492.7 287.5,493.8 290.1,494.8 						"/>
						<path id="XMLID_165_" class="st2" d="M429.7,524.1l-0.6-1.9C429.3,523.1,429.5,523.7,429.7,524.1z"/>
						<path id="XMLID_164_" class="st2" d="M427.3,536.7l1.5,0.6C428,536.5,427.5,536.2,427.3,536.7z"/>
						<path id="XMLID_163_" class="st2" d="M382.3,687.6c0.3,4.1,0.6,9.2,1,12.6c0.4,3.4,0.8,4.9,1.3,1.7l0.6-6.9
							C383.7,693.2,382.8,690.4,382.3,687.6z"/>
						<path id="XMLID_162_" class="st2" d="M427.5,642.2c-0.3-0.1-0.7-0.3-1-0.4c0.9,1.8,1.7,3.6,2.4,5.3
							C428.5,645.6,428,643.9,427.5,642.2z"/>
						<path id="XMLID_161_" class="st2" d="M415.7,626.4c0,0,0.5,0.1,1.1,0.2c0.6,0.1,1.1,0.1,1.1,0.1
							C417.2,626.4,416.4,626.3,415.7,626.4z"/>
						<path id="XMLID_160_" class="st2" d="M438.1,454.8l-3.1-2.6C434.5,455.3,436.5,454.2,438.1,454.8z"/>
						<path id="XMLID_159_" class="st2" d="M325.6,564.5c-0.3,2.6-0.1,4.4,0.5,5.9C326.7,567.1,328.5,563.9,325.6,564.5z"/>
						<path id="XMLID_158_" class="st2" d="M465.1,535.4c-0.4-1.2-1.1-1.7-1.8-1.8C463.7,534.8,464.3,535.5,465.1,535.4z"/>
						<path id="XMLID_157_" class="st2" d="M328.8,576.2c0.1-0.5,0.1-0.9,0.2-1.4c-1.2-1.2-2.3-2.5-3-4.4
							C325.5,572.8,325.7,575.2,328.8,576.2z"/>
						<path id="XMLID_156_" class="st2" d="M484.6,206.2c0.2-0.2,0.3-0.4,0.5-0.5C484.7,205.5,484.6,205.8,484.6,206.2z"/>
						<path id="XMLID_155_" class="st2" d="M531.8,139.6c0.1,0.8-0.1,1.9-0.3,3C531.9,142.1,532,141.2,531.8,139.6z"/>
						<path id="XMLID_154_" class="st2" d="M302.4,521.8C301.5,520.4,302,521.7,302.4,521.8L302.4,521.8z"/>
						<path id="XMLID_153_" class="st2" d="M311.4,508.6c0.5,0.2,1.1,0.2,1.8-0.1C312.4,508.8,311.9,508.8,311.4,508.6z"/>
						<path id="XMLID_152_" class="st2" d="M355.3,581.9c0,0,0,0.1,0,0.1C355.8,581.3,355.7,581.4,355.3,581.9z"/>
						<path id="XMLID_151_" class="st2" d="M302.8,518.8c-0.1,0.7-0.1,1.5,0,2.4C302.9,520.8,302.9,520,302.8,518.8z"/>
						<path id="XMLID_150_" class="st2" d="M301.5,519.8c-0.1-0.6-0.2-1-0.3-1.5C300.5,518.4,300.3,518.8,301.5,519.8z"/>
						<path id="XMLID_149_" class="st2" d="M303.6,523.8c-0.5-0.8-0.7-1.7-0.8-2.6c-0.1,0.4-0.2,0.6-0.3,0.6
							C302.7,522.2,303,522.8,303.6,523.8z"/>
						<path id="XMLID_148_" class="st2" d="M470.4,341.2c0.1-0.1,0.2-0.2,0.4-0.3C469.6,339.1,469.7,339.8,470.4,341.2z"/>
						<path id="XMLID_147_" class="st2" d="M405.4,651.8c0,0.1,0,0.3,0,0.4c0,0.1,0.1,0.3,0.1,0.4L405.4,651.8z"/>
						<path id="XMLID_146_" class="st2" d="M405.8,646.8c0.4,5.9,0.4,8.1,0.3,8.6c-0.1,0.4-0.4-1-0.7-2.7c0,0,0.6,7.2,1.3,14.5
							c0.7,7.4,1.4,14.7,1.4,14.7s-0.4-8.4-0.9-17.2C406.6,655.9,405.8,646.8,405.8,646.8z"/>
						<path id="XMLID_139_" class="st2" d="M434,493.8l-3.8,3.6c-4.2-5.8-1.8-9.1-6.8-6c10.6,2.5-1.7,16.2,8.9,18.6l-2.7,2.3
							c0.2-0.8-0.4-1-0.1-1.7c-6,4.4,7.1,5.3,4.3,11.8c-1.2,2.2-3.1,3.6-4.1,1.8l1.7,5.7c-0.5,1.5-2.3,0.8-1.8-0.7l-0.6,8.2
							l-0.3-0.1c1.5,1.4,3.6,4.5,4.5,6c-1.9,1.8-1-1.2-2.4-0.9l1.8,4.9c-3.1,1.3-5.1-2.8-4.2-5.8c-11.4,2.3,2,4.2-5.8,12l-0.6-4.4
							c-6.5,1.6-4.9,5.3-9.5,9.4c2.2-0.8,11.2-7.8,13-2.5c-1,1.2-1.7,2.9,0,5.9c-3.8-0.6-3.3,2.1-3.7,5.3l-5-1.1
							c0.9,3.7,3.5,3.9,5.4,6.3c-1.2,3.8-5.2,3.9-8.7,4.2c-1.9,6,7-3.1,6.7,4.3c-2.8,4.8-1.4,8.7,0.6,15.4c-2.4,3.3-3-1.2-4.6-0.1
							l3.5,3.9c-0.2,0.8-1.4,0.3-2,0.1c1.1,2.9,5,1.1,5.6,5.5c2.7,1.1,0.3,2.9-2.1,5.2c-0.6,0.6-1.2,1.2-1.7,1.8
							c-0.5,0.6-1,1.5-1.2,1.7c-0.4,0.7-0.2,1.5,1.2,2.7c-0.8,0.1-1.5-0.3-2.3-0.7c-0.8-0.4-1.6-0.9-2.6-1.1c0.9,1.1,1.4,2,1.9,2.7
							c0.5,0.8,0.8,1.4,1.2,2c0.4,0.7,0.8,1.4,1.4,2.2c0.6,1,1.4,2.2,2.5,4.2c0,0-0.9,0.3-1.8,0.4c-0.9,0.1-1.7,0.1-1.7,0.1
							c1.8,0.6,3.7,2.3,5.3,5.1c1.6,2.7,3.1,6.6,4.3,10.5c1.8,0.7,3.4,1,4.2,0.9c0,0,0.3,2.5,0.5,5.1c0.2,2.7,0.5,5.4,0.5,5.4
							c-0.9,0-2.1-2.9-3.7-6.4c0.3,0.9,0.5,1.9,0.8,2.7c-2,0.3-4.1-4.8-6.2-9.4c0.9,0.5,1.9,1,3,1.4c-2.3-4.9-5-9.3-7.6-11.9
							c0.5,0.8,0.8,1.9,0.9,2.8c-0.7-1.2-1.3-2.1-1.7-2.5c-0.5-0.4,0.4,1.1,1.4,3.3c0,0-1.2-1.3-2.4-2.7c-1.2-1.4-2.4-2.8-2.4-2.8
							l1.8,2.8c0,0-0.9,0.2-1.8,0.1c-0.9-0.1-1.7-0.4-1.7-0.4c2,5.4,4.3,12.7,6.1,20.6c1.8,7.9,3,16.5,2.9,23.8
							c-1.1-5.6-2.3-9.2-3.4-12.8c-1.2-3.6-2.5-7.3-4.1-12.5c1.8,4.7,1.7,2.1,1.2-1.3c-0.2-1.6-0.5-3.4-0.8-5.2
							c-0.2-1.5-0.3-2.7,0-2.9c-0.7,0.5-2.3-4-2.8-5.7c0,0,0.7,3,1.3,6.4c0.6,3.4,1.2,7.1,1.2,7.1c-2.7-8.3-2.2-5.1-3.4-7.7
							c1.3,4.1,2.2,7.1,2.7,9.4c0.5,2.3,0.7,4,0.8,5.5c0.1,3-0.2,4.8,0.2,9.1c-0.8-3.3-1.6-6.8-2-9.6c-0.5-2.8-0.7-4.7-0.3-5.1
							c-1-2.9-1.2-2.8-1-1.1c0.2,1.7,0.9,5.1,1.5,8.7c0.6,3.6,1.3,7.3,1.5,9.6c0.2,2.3,0.1,3-0.7,0.4c0.1-0.9,0.4-0.2-0.3-4.1
							c0.5,4,0.3,5.9-0.1,5.7c-0.4-0.2-1.1-2.5-1.6-6.3l0.1-0.8c-0.6,0.8-1.2,3.8-1.2,10.1c-0.4,0.4-0.6,1.5-0.7,3.7
							c-0.1,2.2,0,5.4,0.4,10.2c-0.2-2-2-21.1-2.7-28.4c0,0,0.3,4.1,0.7,9.9c0.3,5.8,0.7,13.2,0.8,20.2c0.1,7,0,13.4-0.2,18.1
							c-0.2,4.6-0.4,7.5-0.4,7.5c-0.1-3.6-0.4-9-0.8-15c-0.4-5.9-0.9-13.1-1.3-18.9c-0.8-12.5-1.2-23.6-0.9-26.8
							c-0.3-1.5-0.5-3.2-0.8-3.9c-0.3-0.7-0.5-0.6-0.8,1.2c0.2,1.3,0.5,7.1,0.9,12.7c0.3,5.6,0.6,11,0.4,11.1
							c-0.5-4.7-0.8-7.8-1.1-10.2c-0.2-1.8-0.3-3.2-0.5-4.6c-0.1-1.1-0.3-2.3-0.5-4.1c-0.2-1.8-0.4-4.4-0.7-8.2
							c0.2,1.8,0.2,8,0,13.3c-0.2,5.3-0.7,9.5-1.2,8.1c0.1-1.4,0.2-6.5,0.3-11.5c0.1-5,0.2-9.7,0.4-10.6c0,0-0.5,4.3-1.1,8.1
							c-0.7,3.9-1.6,7.2-1.6,7.2c0.4-1,0.7-5,0.8-9.4c0.2-4.4,0.3-9.2,0.3-12c-0.1,1.9-0.4,1.2-0.7,0.1c-0.3-1.1-0.7-2.5-1-2.1
							c0,0,0,1.3,0,2.6c0,1.3,0.1,2.6,0.1,2.6c-0.4-1.6-0.9-1.2-1.5,0.1c-0.6,1.3-1.4,3.4-2.3,5.5c-0.9,2-1.8,4-2.7,4.9
							c-0.9,0.9-1.8,0.8-2.6-1c0.6-0.9,2.1-4.5,3.2-8.6c1.2-4,2.1-8.3,2-10c-1.3,2.7-4.4,9.1-8.5,13.2c-2,2.1-4.2,3.6-6.4,4.3
							c-2.2,0.6-4.3,0.3-5.9-1c0,0,0.3-1,0.5-2c0.3-1,0.5-2,0.5-2s-1.2-0.9-2.5-1.9c-1.3-1-2.7-2.1-2.7-2.1c1.8-0.2,4.1-0.4,6.6-0.9
							c2.5-0.5,5-1.3,7.4-2.4c2.4-1.1,4.5-2.5,6.3-4.1c1.8-1.5,3.2-3.1,4.2-4.3c0.2-2,0.6-2.9,0.8-3.7c0.2-0.7,0.2-1.2-0.2-1.8
							c0.6-1.6,1.3-2.4,1.8-2.9c0.5-0.4,0.9-0.5,1-0.5c0,0-0.1-1.1-0.1-2.1c0-1,0-1.9,0-1.9c-1.8,2.5-3,3.2-4.2,3.4
							c-1.2,0.3-2.5,0.2-4.3,1.7c0,0,1.8,0.5,3.3,0.4c1.5,0,2.9-0.5,2.9-0.5c-1.6,2.8-4.3,6.1-7.2,7.1c-1.4,0.6-2.8,0.6-4.1,0
							c-1.2-0.5-2.2-1.7-2.7-3.2c0.5-1.3,2.7-2.4,4.8-3.5c2.1-1.1,4.1-2.2,4.8-2.8c-1.6,0.8-4.5-1.2-3.6-2.4
							c0.2,0.4,3.3,0.2,3.3,0.2c0.2-0.7-0.1-0.8-0.7-1.1c-0.8-0.6-1.9-1-2.9-1.5c-2-1-3.7-2.3-2.4-5.6c-0.4-1.7,4.1-7.5,1.1-6.4
							c-4.4,5.1-21.3,13.7-26.3,14c0.1-0.7,1.5-10.6,3.5-13.6c3.2-4.6,12.2-1.1,14.9-5c-1.4,0.5-3.7-0.1-4.5-0.4
							c0.4-2.1,4.4-1.3,2.2-4.5c-5.2,1.7-2.9-7.3-5,0.3c-3-2.8-0.7-4.1-2.8-8c-2.6,2.8-12.6,1.5-15.6-1.3c1.4-0.4,2.6-1.9,3.2-2.6
							c-2.9-7.2-2.4-12.1-5.4-18.6c0.9-1.2,0.9-5,3.6-4.7c-1.3-0.5-3.4-0.6-4.5-2.6c2.4-5.9,2.8,4.2,6.5-1.2c-3,1.1-6.4-3.4-9.6-5.4
							c-4,3,2.3,7,5.4,9.1c-6.1,2.9-14.9,0.9-20.9-4.7c-4.1-4.7,2.8-4.2,1.5-4.7c-3.7-10.7-14.8-3.7-14.3-14.3
							c2.3-5.2,7.7-3.8,10.1-5.9c3.6,3.7,0.7,8,2.3,10.9l0.1-4.6c2,0.8,4.3,3.3,4,5.4c2.2-4.5-7.4-17.6-7.9-27
							c-2-0.8-4.4-2.6-5.5-0.7l1.7,2.2c-2.1,3.8-6.5-2.7-6.5,1.2c-3.8-2.3-9-4.4-9.4-10l4-3c-1.3,0.7-1.2,4.3,0.8,5
							c-2.9-1,2.6-10-4.2-9.5l-1.5,4.7c-3.8-2.3-10.5-4.3-11-9.1c-3.5,4,1,0.7-2.8,6.1c5.2-5.6,4.7,10.8,9.5,3.5
							c-4.5,5.8-0.1,6.5-3.3,12.8c1.4-0.8,2.1-2.7,3.1,1.1c0.5,0,1.2,0.1,1.7,0.2c0,0.1,0,0.2,0,0.3c0-0.1,0.1-0.2,0.1-0.3
							c0.3,0,0.3,0,0-0.1c0.2-1.1,0.7-2.2,1.4-2.8c4.2,0.2,6.7,5.8,9.3,6.9c0.3,2.4-2.1-0.1-3.1,1.8l3.9,1.6c-3.1,1.8-2.8,8.1-7,4.1
							l1.9,4.5c-0.6,3.5,0.3,7.4,2.7,8.9c0.3,2.4,6.1,3.6,2.7,2.9l5.3,6l-0.8,0.4c2.8,7,12,11.5,9.8,22.1c1.9,1.9,4,3.8,4.9,8.1
							l-2.5,2.1c2.4,2.5,1.3,10.2,4.9,10.1c-6.1,6.7,5.1,15.1,6.2,20.9l3.8-1.5c1.5,3.7,4.1,6.6,7.7,10.3l3.1-1.8
							c2.2,1.3,2.8,4,3.2,7.2l0.1,0.6c0,0.2,0.1,0.6,0.2,0.8c0.1,0.6,0.3,1.2,0.4,1.8c0.3,1.2,0.6,2.5,1,3.7
							c0.7,2.5,1.6,5.1,2.8,7.4c-1.4,0.3-2.3-2.5-2.4-4.6c-0.3,4.1,0.7,7.7,2.2,10.7c1.5,3,3.6,5.5,5.5,7.6c2,2.2,3.9,4,5.4,6.3
							c1.5,2.3,2.6,5.2,3,9.6c1.8,0.9,2.4,3.2,2.9,6.3c-0.1-0.2-0.2-0.3-0.4-0.4c0.1,0.3,0.3,0.7,0.5,1.1c0.3,2,0.5,4.3,0.9,6.5
							c-0.2-2.4-0.4-4.5-0.7-5.9c1,1.9,2.6,4.3,4.2,5.7c0,0-0.2,1.9-0.4,3.7c-0.2,1.9-0.3,3.8-0.3,3.8c0.1,0.2,0.2,0.4,0.4,0.5
							c0.5,2.7,0.9,2.6,1.2,0.9c0.3-1.7,0.5-4.8,0.7-8c0.9,0.4,1.7,0.3,2.4-0.3c-0.4,6.5,0.7,7.5,1.7,8.6c1,1.1,2,2.2,2.2,10.3
							c0.8-2.2,2.5,0.2,4.2,1.3c1.7,1.2,3.3,1,3.7-6.2c0,2.1,0.4,3.8-0.3,2.6c1.3,4.5,2.7,9.4,3.7,7.1l0.9,13.5c0,0,0.7-2.5,1.2-5.2
							c0.5-2.7,1-5.7,1-5.7c1,5.7,1.9,10.3,2.3,14.2c0.4,3.9,0.5,7.2-0.2,10.2c0.9-1.4,1.6-2.1,2-2.4c0.5-0.3,0.8-0.2,1.2-0.1
							c0.3,0.1,0.6,0.1,1-0.5c0.3-0.6,0.7-1.8,1.1-4.4l0.9,9.3c0.6,1.2,1.1-0.4,1.6-1.2c0.5-0.8,0.9-0.7,1.9,4.4
							c0.3,1.3,0.6,2.6,0.9,3.9c1.7,3.6,3.3-4.9,5.1-14.1c0.9-4.6,1.8-9.5,2.9-13.5c1.1-4,2.4-7.3,4.1-9c-1.7-4-2.2-6.1-2.2-7.1
							c0-1,0.6-0.9,1.3-0.9c1.3,0.1,3-0.4,0.6-7.6c0.8,1.6,1.6,2.3,2.2,3.4c0.6,1.1,1.2,2.7,1.5,6.1c0.1-3.6,0.4-5.9,0.9-7.7
							c0.4-1.8,1-3.1,1.4-4.5c0.9-2.8,1.4-6.3-0.3-14.2c0.9,1,1.5,2.7,1.9,4.3c0.4,1.6,0.8,3,1.4,3.5c-0.2-1.6-0.9-6.1,0.3-5.4
							c1.2,0.7,1.2,4.1,1.6,7.3c0.9-6,0-11.5-1.7-16.3c-1.7-4.8-4.3-9.2-6.8-13.3c3.2-0.8,3.4-4.1,0.3-11.1c2,0.6,4.4-0.3,4,6.2
							c0.4-1.4,1.9-5.8,2.8-10.4c0.9-4.7,1.1-9.3-1.2-10.8c1.4-0.3,1.1-4.2,0.7-5.2c0.7-3.4,1.3-5.2,1.7-7.1
							c0.1-0.5,0.2-0.9,0.3-1.4c0-0.2,0.1-0.5,0.1-0.8c0-0.2,0.1-0.4,0.1-0.6c0.1-0.8,0.2-1.8,0.3-3.1l-1.1,1.3
							c-5.7-3.1-0.6-4.4-0.6-8.7l0.6,0.2c6-8.6-1.4-4.4,5.2-12.8l-3.9-0.2c-8-2.3,6.2-7.3,4.1-13.2l-2.5,1.6c-2.3-3.4,12.5-6.2,14-9
							c0.8-0.5,1,1.2,1.3,2.2c6.1-6.9-4.8-1.9-4.9-7.8c2.9-0.6,6.6,2.6,7.7-1.2c2.5-1.5-6.7-12.7-0.7-17.1c-2.3,0.8-4.5,1.6-5.6-1.3
							c0-4.2,9.7-9.7,3.9-14.5c0.7-0.4,1.2-0.5,1.7-0.5c-1.1-3.4-1-10.6-4.2-13.1c13.6-0.6-3-20.5,9.1-18.3l1-9.7l1.2,0.5
							c1.9-6-0.6-8.7-3.1-11.3c1.1-1.3,2,0,2.6,0.2c4-8.5,3.6-9.5-1-18.1l4-0.1c-1.9-2.4,8.4-11.9,5.4-21.5c0.4,0.2,1.2,0.5,1.6,1.3
							c-2.9-10.7,15-21.8,1.4-27.9l-2.4-7.1c-2.6,8.2-6-2.3-8.9,0.7c-0.3-3.5,5.8-7.8,5.8-3.6L475,406c7.2,2.8,4.5-10,9.5-8.9
							c2.5-16.7,9.5-32.1,12.5-47.6l-6.1,0.8l1.3-5.4c1.6-1.2,4.8-1.1,3.9,2.7c3.6-1.5-1.6-7-2.8-7.3c3.7-7.2,6.2,4.1,6.7,1.8
							l0.1-3.2l-0.8,0.6c-1.9-3-4.4-3.6-3.3-8.2c1.7-2.7,3.8-0.9,4.2-2c0.4,0.1,0.7-0.3,0.5-1.7l1.7-6.8l-5,1.9
							c-1.7-3.4,1.4-6.4-4.3-4.1c8.8-3.2,7.3-25,10.3-27.4c-2.6-4.8-1.8-9-0.5-14.1c-1.2,1.1-6.4,1-5-3.4c10.3,3.5,6-7.4,14.2-9.7
							c-5.6,2.4,1-12.9-7.1-9.1c1.5-3.6,4,0.5,7-1.9c-2.5-9.6,6.1-19.1,6.6-30.4c-1.4-0.4-3.8,1.1-5.4-1.7l7.9-4.6
							c-0.3-2.3-7.6-3.4-2.1-6.5c-1.3,0.4-3.2,0.9-3.4-0.6c10.5-20.3,2.2-45,18.7-64.6c-3.2,2.5-3.1,0.5-2.8-1.8
							c-0.9,1.4-3.4-0.6-5.3-0.7l6.8-8.2c-4.9-2.6,1.4-9.9-3.4-11.7l0.4,3.1c-5.2-4.9-14,3.1-21.5,1.2c5.9,5.5-11.9,9.6-3.6,18.4
							c-1.8,1.3-2.2-1.8-4.1-1.2c2.9,2.4,3.2,4.6,1.1,8.4l-0.7-0.6c-1.2,11.4-5.2,15.7-9.6,28l3.9-0.3c-1,2.6-2.2,3-3.4,4.1
							c5.1,4.1,1.7-7.6,7.4-3.7c-8.2,2.3-3.5,19.2-12.5,20.1c-0.8,4.2,4.5-0.5,3.8,3.7l-2.5,0.7l2.8,1.6c-1,2.7-4.1,3.5-6.1,3.3
							c0.4-0.6-0.2-2-0.3-2.7c-3.4,3.1-0.8,10.2-1.9,11.3l2.1-3.8c0.2,11.8-5.3,25.3-2.5,37.1l1.9-0.5c1.8,9-3.1,6.4-3.2,16
							l-0.4-0.4c1.4,2.2,1.9,4.8,1.2,7.3c-1.7-2.7-4.8,3.7-6.5,0.2c1.9,9.8,2,5,7.4,12.2l-3.2,0.9c2.3,2.5,3.6,2.9,3.6,7.7
							c-1.8-4.2-5,2.2-7.5-2.7c-8.1,8.6,3.9,15.5-6.2,18.4c7.3,5.9,6-7.6,7.3-4.8c3-1.6,5.4,4.7,4.1,7.6
							c-0.7,3.1-11.3,3.5-12.5,11.3c0.2-0.8-0.4-0.9-0.3-1.7c-2.6,2.6,1.8,6.2-2.2,9.2c4.5,2.9-1.1,4.6,5,6.3l-0.2-7.4
							c0.9,4.3,7.6,9.4,2.8,15.5c-1.2-0.7-2.5-3-3.2-4.5c-2.2,1.6,0.6,4-1.7,5.7c-6.1-1.7,0.2-8.9-3.8-14.1c-3,1.6,3.1,9-3.3,5.6
							c8,4.6-2.4,7.5,3.2,13.9l-3.7-1c0.4,0.9,1.9,3,1.5,4.5l-4.4-3.6c3.4,5-5.1,7.6-3.5,12.1c1.4-8.6,4.8-1.1,8.2-4.3
							c3.1,11.5-10.8,4.4-11.1,16.6c-0.2-1.7,3.3-5.6,4.6-2.8c-1.2,2.1-3.1,4.9-5.3,5.9c-0.6,8,4.1-0.5,5.8,3.2
							c-5,1.9,1.2,4.2,2,7.9l-3.8-0.6c-4,8.5,7.5,3.8,3.1,11.3l-4.7-4.3l0.6,4.4L450,400c2.4,5.1,1.3,6.4-0.7,10.7
							c2.9-0.6,6.8,1.8,6.2,5.8c-2.7,2.3-3.3-2.1-3.8,3.6c-2.2-1.7-4.9-3.6-1-5.4c-1.2-0.5-2.2-1.7-3.3-2.1
							c-3.1,2.5-1.9,7.2-2.2,9.3c0.3-0.8,0.6-1.7,1.3-2l3.8,9.1c-1.7,1-2.6-0.2-3.6-1.4c0.1,1.7,1.7,3.2,1.6,5.7
							c-3-1.2-6.2-1.6-7-5.3l2.1,8.4c-1.4,0.3-4.4,3.3-5.4,2.1c-2.6,4,4.1,11.6,0.7,16.9c0.5,0.4,1,1.1,1.2,2.4
							c-1.6,5.2-6.3,9.3-3.1,16.4l-6.2,2.6c0.4,5.2,7.8-3.7,8.5,5c0.7,6.2-5.1,1.4-7,3.2c2.3,3.4,7.1,9.5,1.6,14.1
							C433.1,496.8,434.1,495.6,434,493.8z M425.7,555.7c-0.6-1.3-2.6-4.1-0.2-4.6C429.6,553.2,427.3,553.9,425.7,555.7z
							 M420.2,641.2c-0.9-2.4-0.2-2.4,1.1-1.8C421.4,640.6,421.1,641.4,420.2,641.2z M313,536.8c0.1,0,0.1,0,0.2,0
							C313,540,313.1,538.8,313,536.8z M312.1,531.1c-0.7-0.3-1.2,0-1.6,0.4c1.1-0.1,1.6,1,2,2.5
							C313.3,533.2,313.6,532.2,312.1,531.1z M499,328.3l-1.2,0.9C497.2,326.6,498,327.5,499,328.3z"/>
						<path id="XMLID_138_" class="st2" d="M417.1,628.2c0.6,0.5,1.2,1.1,1.8,1.8C418.4,629,417.8,628.3,417.1,628.2z"/>
						<path id="XMLID_137_" class="st2" d="M438.7,455.3c0-0.1,0-0.1,0.1-0.2c-0.2-0.1-0.4-0.2-0.7-0.3L438.7,455.3z"/>
						<path id="XMLID_136_" class="st2" d="M378.6,595.7c0,1.3-0.4,2.2-0.9,2.9C378.6,598.2,379.1,597.4,378.6,595.7z"/>
						<path id="XMLID_135_" class="st2" d="M293.6,507l2.4,2.8c-0.9-1.5-0.4-2.4-0.2-3.5C295,506.8,294.1,508,293.6,507z"/>
						<path id="XMLID_134_" class="st2" d="M302,468.7c-0.7-0.3-0.5-1-1.2-1.2l-1.6,0.9C300.3,470.3,302.3,471.1,302,468.7z"/>
						<path id="XMLID_133_" class="st2" d="M303.8,498.5c2.8-1.6,0.9-3.2-0.7-5.2c0.1,0.1,0.2,0.2,0.2,0.4
							C298.8,495,301.3,496.8,303.8,498.5z"/>
						<path id="XMLID_132_" class="st2" d="M302.7,492.8c-0.5-0.6-0.9-1.3-1.1-2.1C299.9,491.3,301.7,491.8,302.7,492.8z"/>
						<path id="XMLID_131_" class="st2" d="M307.2,525.5c0.3-1.4-4.1,1.1-3.2-0.1C299.7,526,311.9,530.5,307.2,525.5z"/>
						<polygon id="XMLID_130_" class="st2" points="312.6,492.2 309.4,494.7 312.9,494.6 						"/>
						<path id="XMLID_129_" class="st2" d="M318.4,511.4l-0.7-4.1c-0.6,0.3-1.2,0-1.7-0.4C316.9,509.2,317.3,512,318.4,511.4z"/>
						<path id="XMLID_128_" class="st2" d="M316,506.9c-0.5-1.2-1.1-2.3-2-2.6C314.3,504.8,315.1,506.1,316,506.9z"/>
						<polygon id="XMLID_127_" class="st2" points="316,496.6 315.8,498 316.7,500.7 						"/>
						<path id="XMLID_126_" class="st2" d="M336,550.7l2.9,3.5c1.4-0.2,1.7-1.6,0.5-2.9C338.1,550.8,336.9,549.6,336,550.7z"/>
						<path id="XMLID_125_" class="st2" d="M340.3,534.1c-0.2,1.4-1,1.9-1.9,3l4.6-2L340.3,534.1z"/>
						<path id="XMLID_124_" class="st2" d="M346.8,545.2c1.4-0.2,6.3,4.1,3.6-0.8C349,544.5,346.1,541,346.8,545.2z"/>
						<polygon id="XMLID_123_" class="st2" points="369.1,607.6 368.6,606.6 361.3,610.2 						"/>
						<path id="XMLID_122_" class="st2" d="M399.3,626c0.1-4.4-2,7.5-1.9,2.2c-0.5,1.2-0.6,2.2-0.6,3.3c0,1.1,0,2.2-0.4,3.2
							C397.9,632.9,397.7,635.2,399.3,626z"/>
						<path id="XMLID_121_" class="st2" d="M396.5,634.6c-0.2,0.3-0.5,0.6-0.8,1.1C396,635.4,396.3,635,396.5,634.6z"/>
						<polygon id="XMLID_120_" class="st2" points="538.2,128.3 540.5,125.3 537.4,127 						"/>
						<path id="XMLID_119_" class="st2" d="M533.4,121l5.2,0.1l-4.3-2.8C534.5,119.1,534.6,120.6,533.4,121z"/>
						<path id="XMLID_118_" class="st2" d="M413.8,563l1.2,0.5c1.4-0.3,1.7-1,2.1-2.5L413.8,563z"/>
						<polygon id="XMLID_117_" class="st2" points="425.4,519.1 425.2,519.9 430.1,519.2 						"/>
						<path id="XMLID_116_" class="st2" d="M426.1,480.7c-0.5,1.5,0.3,3.5-0.2,5C425.6,482.2,431.9,481.3,426.1,480.7z"/>
					</g>
				</g>
			</g>
		</g>
	</g>
</g>
</svg>
